<!-- Generated by IcoMoon.io -->
<svg version="1.1" xmlns="http://www.w3.org/2000/svg" width="344" height="1024" viewBox="0 0 344 1024">
<title></title>
<g id="icomoon-ignore">
</g>
<path fill="#9ebbff" d="M-803.496 316.235l122.129 14.745c122.128 14.746 366.387 44.235 610.644 147.452 244.257 103.215 488.516 280.157 732.773 368.627s488.519 88.471 732.773 103.215c244.254 14.746 488.519 44.235 610.646 58.981l122.127 14.745h-122.127c-122.127 0-366.392 0-610.646 0s-488.516 0-732.773 0c-244.257 0-488.516 0-732.773 0s-488.516 0-610.644 0h-122.129v-707.765z"></path>
<path fill="#ecf2ff" opacity="0.8" d="M2569.681-195.765h-97.732c-97.732 0-293.195 0-488.67 62.118-195.464 59.294-390.927 180.706-586.391 180.706-195.474 0-390.936-121.412-586.401-19.765s-390.931 426.353-586.398 590.118c-195.466 163.765-390.931 163.765-586.397 121.412-195.467-39.529-390.932-121.412-488.665-160.941l-97.733-42.353v488.471h97.733c97.733 0 293.199 0 488.665 0s390.931 0 586.397 0c195.467 0 390.932 0 586.398 0s390.927 0 586.401 0c195.464 0 390.927 0 586.391 0 195.474 0 390.938 0 488.67 0h97.732v-1219.765z"></path>
<path fill="#c6d7ff" opacity="0.7" d="M325.359 169.717h-2.229c-3.557-0.244-7.029-1.191-10.217-2.785-3.188-1.595-6.029-3.806-8.358-6.504-2.291-2.688-4.025-5.805-5.102-9.17s-1.473-6.91-1.167-10.429c0.432-5.203 2.371-10.168 5.577-14.289 3.208-4.12 7.544-7.217 12.482-8.914 4.938-1.696 10.263-1.918 15.325-0.639 5.061 1.28 9.641 4.006 13.18 7.845s5.883 8.625 6.747 13.776c0.864 5.149 0.211 10.439-1.881 15.223s-5.53 8.856-9.897 11.718c-4.366 2.862-9.471 4.392-14.692 4.4l0.232-0.232zM325.359 119.372c-5.281 0.027-10.396 1.852-14.499 5.178-4.105 3.325-6.952 7.949-8.074 13.111s-0.451 10.552 1.903 15.28c2.352 4.728 6.248 8.514 11.041 10.73 4.794 2.217 10.2 2.732 15.327 1.462 5.126-1.269 9.667-4.25 12.872-8.448s4.883-9.364 4.758-14.645c-0.126-5.28-2.048-10.36-5.449-14.402-1.982-2.349-4.41-4.281-7.144-5.685s-5.72-2.249-8.784-2.49l-1.95-0.093z"></path>
<path fill="#c6d7ff" d="M311.073 400.854c-0.21 2.544-1.169 4.968-2.756 6.967-1.588 2-3.732 3.483-6.163 4.263-2.43 0.781-5.037 0.823-7.492 0.122s-4.646-2.115-6.297-4.061c-1.652-1.947-2.689-4.339-2.981-6.875s0.174-5.101 1.341-7.371c1.166-2.271 2.978-4.144 5.21-5.385s4.779-1.792 7.324-1.583c3.412 0.282 6.572 1.907 8.787 4.518s3.303 5.993 3.026 9.406z"></path>
<path fill="#ecf2ff" d="M39.577 172.536c-0.209 2.544-1.168 4.968-2.756 6.968-1.588 1.999-3.732 3.482-6.162 4.263-2.43 0.78-5.038 0.823-7.492 0.122s-4.646-2.115-6.297-4.062c-1.651-1.946-2.688-4.338-2.98-6.874-0.292-2.535 0.175-5.101 1.341-7.371s2.979-4.145 5.21-5.386c2.231-1.24 4.78-1.791 7.324-1.583 3.412 0.283 6.572 1.908 8.787 4.519s3.303 5.993 3.025 9.405z"></path>
<path fill="#ecf2ff" d="M245.422 255.946c-0.14 1.696-0.779 3.312-1.837 4.645s-2.488 2.322-4.108 2.842c-1.621 0.521-3.359 0.549-4.995 0.082-1.636-0.468-3.098-1.41-4.198-2.707-1.101-1.298-1.792-2.892-1.987-4.583s0.116-3.401 0.894-4.915c0.778-1.513 1.987-2.763 3.473-3.59 1.488-0.826 3.187-1.194 4.883-1.055 2.274 0.188 4.381 1.271 5.858 3.012s2.202 3.996 2.017 6.271z"></path>
<path fill="#c6d7ff" opacity="0.7" d="M56.964 567.934h-1.427c-2.276-0.157-4.498-0.763-6.539-1.783-2.040-1.020-3.859-2.434-5.349-4.162-1.466-1.721-2.576-3.715-3.265-5.869s-0.943-4.423-0.747-6.675c0.277-3.33 1.517-6.508 3.57-9.144s4.828-4.62 7.988-5.705c3.16-1.086 6.568-1.228 9.807-0.409s6.17 2.563 8.435 5.020c2.265 2.458 3.765 5.52 4.318 8.816s0.135 6.682-1.204 9.743c-1.339 3.062-3.539 5.669-6.334 7.5s-6.062 2.811-9.403 2.816l0.149-0.148zM56.964 535.713c-3.38 0.016-6.653 1.185-9.28 3.313s-4.449 5.088-5.167 8.391c-0.718 3.304-0.288 6.753 1.218 9.78s3.999 5.449 7.067 6.868c3.068 1.419 6.528 1.749 9.809 0.936s6.187-2.72 8.238-5.407c2.051-2.687 3.125-5.993 3.045-9.373s-1.311-6.63-3.487-9.217c-1.268-1.503-2.823-2.74-4.573-3.638s-3.661-1.439-5.621-1.593l-1.248-0.059z"></path>
<path fill="#c6d7ff" d="M334.081 745.503c-0.209 2.544-1.168 4.969-2.756 6.968s-3.731 3.483-6.162 4.263c-2.43 0.781-5.037 0.823-7.492 0.122s-4.647-2.115-6.298-4.061c-1.651-1.947-2.688-4.339-2.979-6.875-0.293-2.535 0.174-5.101 1.34-7.371s2.979-4.144 5.21-5.386c2.232-1.24 4.78-1.791 7.324-1.582 3.412 0.282 6.573 1.907 8.788 4.518s3.302 5.993 3.025 9.405z"></path>
<path fill="#9ebbff" opacity="0.7" d="M20.651 879.87h-1.694c-2.703-0.186-5.342-0.906-7.765-2.117s-4.582-2.892-6.352-4.943c-1.741-2.044-3.059-4.412-3.877-6.97s-1.12-5.251-0.887-7.925c0.329-3.955 1.802-7.728 4.239-10.86s5.733-5.486 9.486-6.775c3.753-1.289 7.799-1.457 11.646-0.485s7.327 3.044 10.017 5.962c2.689 2.917 4.471 6.555 5.128 10.469 0.657 3.913 0.16 7.934-1.429 11.569s-4.203 6.73-7.522 8.906c-3.319 2.175-7.199 3.337-11.166 3.344l0.176-0.176zM20.651 841.608c-4.014 0.019-7.901 1.408-11.020 3.935s-5.283 6.042-6.136 9.965c-0.853 3.923-0.343 8.019 1.446 11.613 1.789 3.595 4.749 6.471 8.392 8.155s7.752 2.077 11.648 1.112c3.896-0.966 7.347-3.23 9.783-6.422 2.436-3.19 3.711-7.116 3.616-11.13s-1.556-7.875-4.141-10.946c-1.506-1.786-3.352-3.254-5.43-4.32s-4.347-1.71-6.675-1.893l-1.482-0.070z"></path>
<path fill="#c6d7ff" d="M176.093 1008.688c-0.227 2.756-1.266 5.382-2.986 7.549-1.719 2.165-4.042 3.772-6.675 4.618s-5.458 0.891-8.117 0.131c-2.659-0.759-5.033-2.29-6.822-4.399-1.789-2.108-2.913-4.701-3.229-7.448s0.189-5.527 1.453-7.985c1.263-2.46 3.227-4.491 5.644-5.834 2.418-1.343 5.178-1.94 7.935-1.716 3.696 0.307 7.12 2.067 9.519 4.895s3.579 6.493 3.277 10.189z"></path>
<path fill="#9ebbff" opacity="0.7" d="M298.090 991.951h-1.427c-2.275-0.156-4.498-0.762-6.539-1.782s-3.858-2.435-5.349-4.162c-1.466-1.721-2.576-3.716-3.265-5.87s-0.942-4.422-0.748-6.674c0.278-3.33 1.518-6.508 3.57-9.145s4.829-4.619 7.989-5.705c3.16-1.085 6.568-1.227 9.807-0.409 3.24 0.82 6.171 2.564 8.435 5.021s3.766 5.52 4.319 8.816 0.136 6.681-1.204 9.743c-1.338 3.062-3.539 5.667-6.333 7.499s-6.062 2.811-9.403 2.817l0.148-0.15zM298.090 959.73c-3.381 0.017-6.654 1.185-9.281 3.314s-4.449 5.088-5.166 8.391c-0.719 3.303-0.289 6.753 1.218 9.78 1.506 3.026 3.998 5.448 7.067 6.867 3.068 1.419 6.528 1.749 9.809 0.937s6.187-2.72 8.238-5.407 3.125-5.993 3.044-9.373c-0.080-3.38-1.31-6.631-3.487-9.217-1.268-1.504-2.822-2.74-4.573-3.638s-3.66-1.439-5.621-1.594l-1.248-0.059z"></path>
</svg>
