<!-- Generated by IcoMoon.io -->
<svg version="1.1" xmlns="http://www.w3.org/2000/svg" width="2134" height="1024" viewBox="0 0 2134 1024">
<title></title>
<g id="icomoon-ignore">
</g>
<path fill="#9ebbff" d="M0 597.21l74.096 8.891c74.096 8.891 222.287 26.674 370.478 88.915s296.382 168.938 444.573 222.287c148.191 53.349 296.382 53.349 444.573 62.24s296.382 26.674 370.478 35.566l74.096 8.891h-74.096c-74.096 0-222.287 0-370.478 0s-296.382 0-444.573 0c-148.191 0-296.382 0-444.573 0s-296.382 0-370.478 0h-74.096v-426.79z"></path>
<path fill="#ecf2ff" opacity="0.8" d="M2133.951 383.815h-59.276c-59.276 0-177.829 0-296.382 32.602-118.553 31.12-237.106 94.842-355.658 94.842s-237.106-63.722-355.658-10.373c-118.553 53.349-237.106 223.768-355.658 309.719s-237.106 85.951-355.658 63.722c-118.553-20.747-237.106-63.722-296.382-84.469l-59.276-22.229v256.37h59.276c59.276 0 177.829 0 296.382 0s237.106 0 355.658 0c118.553 0 237.106 0 355.658 0s237.106 0 355.658 0c118.553 0 237.106 0 355.658 0s237.106 0 296.382 0h59.276v-640.185z"></path>
<path fill="#f5f5f5" d="M1782.738 979.543c118.701 0 214.921-5.603 214.921-12.516s-96.22-12.515-214.921-12.515-214.921 5.603-214.921 12.515c0 6.913 96.22 12.516 214.921 12.516z"></path>
<path fill="#407bff" opacity="0.1" d="M1657.813 879.649c0.133-0.996 0.652-1.903 1.423-2.536 0.785-0.631 1.793-0.938 2.786-0.86 9.499-0.144 18.376 6.546 26.6 13.721 1.838 1.581 3.823 3.219 5.868 1.559 0.637-0.523 1.097-1.224 1.334-2.012 0.356-1.288 0.356-2.647 0-3.936-0.311-1.063-0.815-2.058-1.497-2.93-3.586-4.699-7.943-6.955-11.47-11.808-1.986-2.78-3.631-5.787-4.89-8.955-1.111-2.786-3.319-7.287-2.445-11.057 0.993-4.511 4.372-4.124 6.417-3.505 6.491 1.934 12.537 6.546 18.035 12.284 5.868 6.103 11.174 13.456 16.464 20.763 2.001 2.776 4.105 5.628 6.654 6.635s5.779-0.619 6.846-4.622c1.082-4.003-0.178-8.601-0.445-12.581-0.356-4.75-0.133-9.526 0.682-14.219 0.356-2.481 1.2-4.87 2.475-7.032 2.86-4.179 7.098-2.709 9.87 0.453 2.104 2.645 3.749 5.639 4.831 8.846 3.097 8.859 4.964 18.104 5.542 27.475 0.415 5.805 1.304 11.852 3.69 16.351 3.883 7.276 11.085 6.701 16.686 2.887 9.751-6.635 17.264-21.627 19.265-38.387 0.652-5.462 0.83-11.366 2.816-15.944 1.749-3.958 6.209-6.635 8.388-2.367 0.889 2.134 1.126 4.475 0.711 6.744-0.385 2.248-0.934 4.465-1.645 6.635-1.111 3.76-2.223 10.802 0.771 13.002 0.445 0.27 0.948 0.44 1.467 0.498 0.519 0.056 1.052 0 1.541-0.166 9.795-2.035 18.909-11.233 24.896-24.071 2.164-4.83 3.823-9.872 4.95-15.047 0.711-3.162 1.008-6.556 1.808-9.696 0.519-2.472 1.556-4.804 3.038-6.843 3.823-4.555 12.611-2.411 13.115 7.352 0.296 5.651-1.2 11.178-1.763 16.707-0.341 3.448 1.793 3.428 3.394 3.317 7.647-0.774 14.404-8.469 20.406-16.474 7.128-9.52 15.027-21.88 24.748-22.245 2.223-0.077 5.913 0.21 7.247 3.626 0.608 2.094 0.608 4.32 0 6.412-1.971 8.159-7.765 12.372-12.196 16.408-12.507 11.695-23.488 24.895-32.735 39.294-1.408 2.211-2.86 5.861-1.512 8.028 0.252 0.412 0.622 0.738 1.067 0.935s0.948 0.256 1.423 0.17c4.579-0.354 8.862-3.98 13.041-6.987 4.179-3.008 8.936-5.639 13.308-3.373 1.349 0.808 2.519 1.875 3.453 3.139 0.948 1.264 1.615 2.7 1.986 4.225 0.785 2.673 0.919 5.495 0.37 8.226-1.615 7.507-8.551 10.879-12.389 14.583-5.261 5.067-10.077 10.575-14.404 16.463-3.986 5.45-7.765 11.421-11.752 16.772-14.404 19.161-34.365 22.002-52.089 24.225-19.309 2.411-38.648 1.106-57.839-1.426-13.945-1.858-27.712-5.816-41.33-10.516-4.683-1.691-9.321-3.537-13.915-5.726-4.935-2.344-12.196-3.792-14.078-13.025-0.4-1.99 0.059-3.605 1.378-4.345 4.090-2.322 9.914 0.784 13.767 2.83 5.305 2.83 10.344 6.866 15.797 9.044 0.874 0.43 1.838 0.677 2.801 0.729 0.978 0.050 1.956-0.096 2.875-0.431 0.904-0.376 1.645-1.052 2.089-1.913 0.578-1.12 0.726-2.417 0.4-3.637-0.222-0.659-0.608-1.255-1.111-1.737-9.81-10.034-21.532-18.011-34.484-23.462-4.164-1.78-8.402-3.239-12.404-5.76-3.245-1.995-6.031-4.629-8.21-7.739-1.867-2.974-4.861-8.226-3.912-12.97z"></path>
<path fill="#407bff" opacity="0.1" d="M1869.83 798.373c-0.741 0.765-1.704 1.27-2.771 1.436-1.052 0.166-2.119-0.013-3.068-0.514-0.948-0.499-1.689-1.291-2.149-2.255-0.445-0.965-0.563-2.048-0.341-3.088 3.823-18.519 12.137-31.987 22.021-25 7.38 5.209-4.194 19.57-13.693 29.422z"></path>
<path fill="#407bff" opacity="0.3" d="M1843.007 807.019c3.023-1.664 5.587-4.050 7.454-6.944 1.882-2.894 3.008-6.206 3.29-9.64l7.484-91.049c0.4-4.681-0.207-9.391-1.749-13.828-1.541-4.435-4.001-8.502-7.217-11.934l-23.088-24.666c-1.274-1.365-2.238-2.977-2.86-4.736-0.608-1.758-0.845-3.625-0.696-5.48l1.111-13.334-59.765-4.898-1.097 13.334c-0.163 1.854-0.696 3.657-1.586 5.293-0.889 1.635-2.119 3.066-3.601 4.203l-26.823 20.599c-3.734 2.866-6.817 6.479-9.069 10.605-2.238 4.126-3.601 8.674-3.986 13.355l-7.498 91.049c-0.296 3.429 0.282 6.876 1.66 10.033 1.378 3.155 3.512 5.923 6.209 8.056-3.023 1.664-5.587 4.050-7.454 6.944s-2.993 6.206-3.275 9.64l-9.558 116.093c-0.459 5.519 1.304 10.991 4.905 15.213 3.586 4.223 8.714 6.852 14.241 7.309l98.666 8.082c2.727 0.225 5.483-0.090 8.106-0.928s5.038-2.181 7.143-3.955c2.089-1.772 3.823-3.94 5.083-6.38 1.26-2.438 2.015-5.099 2.238-7.832l9.573-116.093c0.282-3.429-0.267-6.878-1.645-10.037-1.363-3.159-3.497-5.934-6.194-8.073z"></path>
<path fill="#407bff" opacity="0.3" d="M1767 620.529l-0.86 10.281 59.751 4.899 0.845-10.28-59.736-4.901z"></path>
<path fill="#fff" opacity="0.3" d="M1851.721 676.002l-23.088-24.689c0 0-14.893 0.64-3.334 18.851 9.855 15.401 27.030 13.002 26.422 5.837z"></path>
<path fill="#407bff" opacity="0.2" d="M1700.907 929.668c-0.459 5.519 1.304 10.991 4.905 15.215 3.586 4.222 8.714 6.851 14.241 7.307l98.651 8.082c2.742 0.225 5.498-0.090 8.121-0.928 2.608-0.837 5.038-2.181 7.143-3.954 2.089-1.774 3.823-3.942 5.068-6.38 1.26-2.439 2.030-5.101 2.253-7.833l-140.381-11.51z"></path>
<path fill="#407bff" opacity="0.3" d="M1847.409 678.135c2.579 2.758 4.549 6.022 5.794 9.585 1.23 3.561 1.719 7.343 1.408 11.101l-7.498 91.060c-0.193 2.341-0.963 4.597-2.238 6.568-1.289 1.972-3.038 3.597-5.098 4.732l-8.714 4.821 7.81 6.181c1.852 1.454 3.305 3.34 4.253 5.493 0.934 2.153 1.319 4.505 1.126 6.845l-9.558 116.091c-0.311 3.763-2.104 7.25-4.979 9.695-2.89 2.447-6.624 3.651-10.403 3.352l-98.651-8.082c-1.867-0.148-3.69-0.662-5.365-1.515s-3.171-2.024-4.386-3.45c-1.215-1.427-2.149-3.078-2.727-4.861s-0.8-3.663-0.652-5.532l9.558-116.091c0.193-2.343 0.963-4.601 2.238-6.574 1.289-1.974 3.038-3.601 5.098-4.738l8.714-4.821-7.75-6.18c-1.852-1.454-3.305-3.342-4.253-5.495-0.934-2.153-1.334-4.504-1.141-6.845l7.513-91.049c0.311-3.758 1.408-7.411 3.216-10.725 1.808-3.312 4.283-6.212 7.276-8.514 8.862-5.716 32.143 8.514 59.41 10.747 27.252 2.233 44.294-4.667 50-1.802z"></path>
<path fill="#407bff" opacity="0.2" d="M1797.35 679.948c-27.252-2.211-50.548-16.473-59.41-10.757 15.516 8.514 33.254 13.788 58.98 15.899s50.489-6.955 50.489-6.955c-5.705-2.865-22.821 4.057-50.059 1.812z"></path>
<path fill="#407bff" opacity="0.2" d="M1713.311 778.947c-0.282 3.429 0.296 6.876 1.66 10.033 1.378 3.155 3.512 5.923 6.224 8.056l121.813 9.951c3.023-1.664 5.587-4.052 7.454-6.944 1.882-2.894 3.008-6.206 3.29-9.64l-140.441-11.455z"></path>
<path fill="#407bff" d="M1827.981 609.123l-59.573-4.901c-2.49-0.206-4.683 1.646-4.89 4.135l-1.186 14.458c-0.207 2.49 1.66 4.674 4.149 4.88l59.573 4.901c2.504 0.205 4.683-1.646 4.89-4.136l1.186-14.458c0.207-2.49-1.645-4.672-4.149-4.878z"></path>
<path fill="#fff" opacity="0.2" d="M1769.505 625.462c-0.074-0.006-0.148-0.025-0.207-0.058-0.074-0.034-0.133-0.079-0.178-0.135-0.044-0.055-0.074-0.12-0.104-0.19-0.015-0.068-0.030-0.142-0.030-0.215l1.408-17.491c0.015-0.147 0.074-0.282 0.193-0.378 0.104-0.095 0.252-0.142 0.4-0.13s0.282 0.082 0.385 0.193c0.089 0.113 0.133 0.258 0.133 0.405l-1.452 17.481c0 0.141-0.059 0.273-0.163 0.369s-0.252 0.15-0.385 0.15z"></path>
<path fill="#fff" opacity="0.2" d="M1780.308 626.347c-0.074-0.006-0.148-0.025-0.207-0.058s-0.119-0.080-0.163-0.135c-0.059-0.055-0.089-0.12-0.119-0.19-0.015-0.068-0.030-0.142-0.015-0.215l1.437-17.479c0.015-0.147 0.089-0.282 0.193-0.376 0.119-0.095 0.267-0.142 0.4-0.133 0.074 0.006 0.148 0.027 0.207 0.059 0.074 0.033 0.133 0.079 0.178 0.135 0.044 0.055 0.074 0.12 0.104 0.19 0.015 0.068 0.030 0.142 0.015 0.213l-1.467 17.481c-0.015 0.138-0.089 0.265-0.193 0.36-0.089 0.093-0.222 0.147-0.37 0.148z"></path>
<path fill="#fff" opacity="0.2" d="M1791.111 627.276c-0.074-0.006-0.148-0.025-0.207-0.059-0.074-0.033-0.133-0.079-0.178-0.133-0.044-0.056-0.074-0.12-0.104-0.19-0.015-0.070-0.030-0.142-0.030-0.215l1.452-17.481c0.015-0.144 0.089-0.277 0.193-0.372 0.119-0.093 0.252-0.142 0.4-0.136 0.074 0.006 0.148 0.025 0.207 0.059s0.119 0.079 0.178 0.133c0.044 0.056 0.074 0.12 0.104 0.19 0.015 0.070 0.030 0.142 0.015 0.215l-1.437 17.481c0 0.073-0.030 0.142-0.059 0.207s-0.074 0.123-0.133 0.17c-0.059 0.047-0.119 0.083-0.193 0.105-0.059 0.022-0.133 0.031-0.207 0.025z"></path>
<path fill="#fff" opacity="0.2" d="M1801.914 628.117c-0.074-0.006-0.148-0.025-0.207-0.059s-0.119-0.079-0.178-0.133c-0.044-0.056-0.074-0.12-0.104-0.19-0.015-0.070-0.030-0.142-0.015-0.215l1.437-17.481c0.015-0.145 0.089-0.28 0.193-0.375 0.119-0.095 0.252-0.142 0.4-0.133 0.074 0.006 0.148 0.025 0.207 0.059 0.074 0.033 0.133 0.079 0.178 0.135 0.044 0.055 0.074 0.12 0.104 0.188 0.015 0.070 0.015 0.142 0.015 0.215l-1.437 17.481c-0.015 0.071-0.030 0.142-0.059 0.207s-0.074 0.123-0.133 0.17c-0.059 0.047-0.119 0.083-0.193 0.105-0.059 0.022-0.133 0.031-0.207 0.025z"></path>
<path fill="#fff" opacity="0.2" d="M1812.673 629.001c-0.074-0.006-0.148-0.027-0.207-0.059-0.074-0.033-0.133-0.079-0.178-0.133-0.044-0.056-0.089-0.12-0.104-0.19-0.030-0.070-0.030-0.142-0.030-0.215l1.437-17.481c0.030-0.144 0.104-0.274 0.207-0.369 0.119-0.093 0.252-0.144 0.4-0.139 0.074 0.006 0.148 0.025 0.207 0.058s0.119 0.080 0.163 0.135c0.059 0.055 0.089 0.12 0.119 0.19 0.015 0.068 0.030 0.142 0.015 0.215l-1.437 17.479c0 0.074-0.030 0.145-0.059 0.212-0.030 0.065-0.074 0.123-0.133 0.17s-0.119 0.084-0.193 0.105c-0.059 0.022-0.133 0.030-0.207 0.022z"></path>
<path fill="#fff" opacity="0.2" d="M1823.52 629.886c-0.074-0.006-0.148-0.027-0.207-0.059-0.074-0.033-0.119-0.079-0.178-0.133-0.044-0.056-0.074-0.12-0.104-0.19-0.015-0.070-0.030-0.142-0.015-0.215l1.393-17.491c0.015-0.147 0.074-0.282 0.193-0.376s0.252-0.142 0.4-0.133c0.148 0.015 0.282 0.084 0.37 0.197 0.104 0.111 0.148 0.255 0.133 0.4l-1.437 17.491c-0.015 0.138-0.074 0.267-0.178 0.36s-0.237 0.147-0.37 0.15z"></path>
<path fill="#407bff" opacity="0.2" d="M1731.746 748.531c-1.675-9.298-15.264-8.635-16.034 0.775l-2.445 29.641c-0.282 3.429 0.296 6.876 1.66 10.033 1.378 3.155 3.512 5.923 6.224 8.056-3.023 1.664-5.587 4.050-7.454 6.944-1.882 2.894-2.993 6.206-3.275 9.64l-9.558 116.093c-0.459 5.519 1.304 10.991 4.905 15.213 3.586 4.223 8.714 6.852 14.241 7.309l25.489 2.089c2.816 0.228 5.646-0.188 8.254-1.221 2.623-1.033 4.979-2.651 6.876-4.733 1.882-2.082 3.275-4.569 4.060-7.272 0.771-2.702 0.919-5.545 0.415-8.312l-33.358-184.255z"></path>
<path fill="#407bff" opacity="0.3" d="M1829.848 900.545c-0.178 2.131-0.978 4.163-2.312 5.837s-3.142 2.916-5.172 3.571c-2.045 0.654-4.238 0.689-6.298 0.101s-3.897-1.771-5.29-3.401c-1.378-1.632-2.253-3.635-2.504-5.76-0.237-2.124 0.148-4.274 1.126-6.175 0.978-1.903 2.504-3.472 4.372-4.511 1.882-1.039 4.016-1.501 6.165-1.326 2.86 0.236 5.513 1.597 7.38 3.785 1.852 2.187 2.771 5.021 2.534 7.879z"></path>
<path fill="#407bff" opacity="0.3" d="M1795.379 858.675c-0.119 1.509-0.682 2.946-1.63 4.132s-2.223 2.066-3.66 2.53c-1.437 0.462-2.993 0.488-4.446 0.073-1.467-0.415-2.771-1.254-3.749-2.407s-1.6-2.573-1.778-4.077c-0.163-1.503 0.104-3.025 0.8-4.37s1.778-2.457 3.097-3.192c1.334-0.735 2.845-1.061 4.357-0.937 2.030 0.169 3.897 1.132 5.216 2.678s1.956 3.549 1.793 5.571z"></path>
<path fill="#407bff" opacity="0.3" d="M1763.325 765.481c-1.526 0.070-3.023-0.308-4.327-1.089-1.289-0.781-2.327-1.928-2.979-3.296-0.637-1.369-0.874-2.899-0.637-4.394 0.222-1.495 0.889-2.891 1.897-4.010 1.023-1.119 2.356-1.912 3.823-2.278 1.482-0.366 3.023-0.289 4.446 0.222 1.437 0.511 2.667 1.432 3.571 2.647s1.423 2.67 1.497 4.182c0.059 1.005-0.089 2.009-0.43 2.956s-0.874 1.818-1.556 2.562c-0.667 0.745-1.497 1.349-2.401 1.777-0.919 0.428-1.897 0.673-2.905 0.72z"></path>
<path fill="#407bff" opacity="0.3" d="M1784.235 719.74c-1.067 0.053-2.134-0.212-3.068-0.763-0.919-0.55-1.66-1.362-2.119-2.331s-0.622-2.054-0.459-3.115c0.163-1.060 0.637-2.049 1.349-2.844 0.726-0.794 1.675-1.356 2.712-1.615 1.052-0.259 2.149-0.203 3.156 0.16s1.897 1.018 2.534 1.881c0.637 0.864 0.993 1.895 1.052 2.967 0.059 1.432-0.445 2.832-1.408 3.893s-2.312 1.697-3.749 1.768z"></path>
<path fill="#407bff" opacity="0.3" d="M1817.889 825.605c-0.059 0.622-0.296 1.215-0.682 1.704s-0.919 0.852-1.512 1.043c-0.593 0.19-1.23 0.2-1.838 0.028s-1.141-0.519-1.541-0.996c-0.415-0.476-0.667-1.063-0.741-1.683s0.044-1.248 0.326-1.803c0.296-0.557 0.741-1.015 1.289-1.32 0.548-0.304 1.171-0.439 1.793-0.388 0.845 0.070 1.615 0.47 2.164 1.11 0.533 0.64 0.8 1.469 0.741 2.306z"></path>
<path fill="#fff" opacity="0.7" d="M1760.465 912.11h-0.533c-0.845-0.058-1.675-0.283-2.43-0.662-0.771-0.379-1.437-0.907-2.001-1.549-0.548-0.64-0.963-1.383-1.215-2.183-0.252-0.802-0.356-1.645-0.282-2.484 0.104-1.239 0.563-2.42 1.334-3.401s1.808-1.718 2.979-2.122c1.186-0.403 2.445-0.456 3.66-0.153 1.2 0.305 2.297 0.954 3.142 1.869 0.845 0.913 1.408 2.052 1.615 3.278s0.044 2.485-0.445 3.625c-0.504 1.14-1.319 2.109-2.371 2.79-1.037 0.68-2.253 1.045-3.497 1.046l0.044-0.055zM1760.465 900.124c-1.26 0.007-2.475 0.442-3.453 1.233s-1.66 1.892-1.926 3.121c-0.267 1.23-0.119 2.512 0.445 3.638s1.497 2.027 2.638 2.555c1.141 0.528 2.43 0.651 3.66 0.348s2.312-1.012 3.068-2.011c0.771-1 1.171-2.23 1.141-3.487s-0.489-2.466-1.304-3.428c-0.474-0.56-1.052-1.020-1.704-1.354-0.652-0.333-1.363-0.535-2.089-0.593l-0.474-0.022z"></path>
<path fill="#fff" opacity="0.7" d="M1829.033 782.729h-0.4c-1.23-0.102-2.371-0.686-3.171-1.624-0.8-0.94-1.186-2.156-1.097-3.385 0.104-1.23 0.696-2.37 1.645-3.167 0.934-0.799 2.164-1.19 3.394-1.089s2.371 0.685 3.171 1.624c0.8 0.938 1.2 2.156 1.097 3.383-0.104 1.23-0.696 2.37-1.63 3.174-0.845 0.705-1.912 1.091-3.008 1.083zM1825.21 777.764c-0.059 0.751 0.104 1.503 0.474 2.159s0.934 1.188 1.615 1.531c0.667 0.341 1.423 0.476 2.178 0.388s1.452-0.396 2.030-0.883c0.385-0.325 0.711-0.722 0.934-1.169 0.237-0.448 0.37-0.935 0.415-1.437 0.044-0.501-0.015-1.005-0.178-1.483-0.148-0.479-0.4-0.922-0.726-1.306-0.341-0.372-0.741-0.674-1.2-0.886s-0.948-0.332-1.452-0.351c-0.504-0.043-1.008 0.013-1.497 0.166-0.474 0.154-0.919 0.399-1.304 0.723s-0.696 0.722-0.934 1.169c-0.222 0.446-0.37 0.934-0.4 1.434l0.044-0.055z"></path>
<path fill="#fff" opacity="0.7" d="M1757.412 684.702h-0.163c-0.578-0.056-1.111-0.332-1.482-0.769s-0.563-1.002-0.519-1.574c0.030-0.43 0.178-0.843 0.445-1.187 0.252-0.344 0.608-0.605 1.023-0.751 0.4-0.145 0.845-0.169 1.26-0.068 0.43 0.101 0.8 0.322 1.097 0.636s0.504 0.708 0.578 1.134c0.074 0.424 0.015 0.861-0.148 1.257-0.178 0.396-0.459 0.732-0.815 0.971-0.37 0.237-0.785 0.363-1.215 0.365l-0.059-0.012zM1756.064 682.426c-0.015 0.262 0.044 0.526 0.178 0.757 0.119 0.23 0.311 0.418 0.548 0.538s0.504 0.169 0.771 0.139c0.267-0.031 0.504-0.138 0.711-0.308 0.207-0.172 0.356-0.399 0.43-0.652 0.059-0.253 0.059-0.523-0.015-0.775-0.089-0.252-0.237-0.474-0.445-0.639-0.207-0.166-0.459-0.265-0.726-0.289-0.178-0.016-0.356 0.003-0.519 0.056s-0.326 0.139-0.459 0.253-0.252 0.253-0.326 0.412c-0.089 0.157-0.133 0.329-0.148 0.507z"></path>
<path fill="#fff" opacity="0.7" d="M1806.419 741.964h-0.459c-0.726-0.058-1.437-0.258-2.089-0.591s-1.23-0.791-1.704-1.349c-0.474-0.557-0.83-1.202-1.052-1.897s-0.311-1.429-0.237-2.156c0.089-1.068 0.489-2.085 1.156-2.928s1.556-1.475 2.579-1.82c1.023-0.345 2.119-0.387 3.156-0.122s1.986 0.825 2.712 1.615c0.726 0.788 1.2 1.771 1.378 2.829s0.044 2.141-0.385 3.124-1.141 1.818-2.030 2.407c-0.904 0.59-1.956 0.905-3.023 0.908v-0.021zM1806.419 731.681c-1.111-0.004-2.193 0.387-3.038 1.106-0.963 0.808-1.556 1.961-1.66 3.207-0.074 0.772 0.059 1.549 0.37 2.26s0.785 1.335 1.393 1.818c0.622 0.482 1.334 0.806 2.104 0.945 0.756 0.139 1.541 0.087 2.282-0.148 0.741-0.237 1.423-0.652 1.956-1.209 0.548-0.556 0.934-1.237 1.156-1.983 0.207-0.745 0.237-1.532 0.074-2.291-0.163-0.757-0.504-1.464-1.008-2.057-0.4-0.476-0.889-0.865-1.452-1.147-0.548-0.283-1.156-0.453-1.778-0.501h-0.4z"></path>
<path fill="#fff" opacity="0.3" d="M1851.899 790.303l7.158-86.827c0.044-0.554-0.015-1.113-0.193-1.642-0.163-0.531-0.445-1.021-0.8-1.445-0.37-0.425-0.8-0.774-1.304-1.027-0.489-0.253-1.037-0.408-1.6-0.452-0.548-0.047-1.111 0.016-1.645 0.185-0.519 0.169-1.023 0.442-1.437 0.8-0.43 0.36-0.785 0.8-1.037 1.295s-0.4 1.034-0.445 1.589l-7.172 86.825c-0.222 2.887-1.171 5.67-2.756 8.102-1.571 2.432-3.734 4.435-6.268 5.83l-4.357 2.421 3.912 3.085c2.282 1.792 4.075 4.118 5.231 6.772 1.171 2.656 1.645 5.554 1.423 8.441l-9.573 116.091c-0.578 6.966-4.964 10.36-11.144 13.069-0.385 0.175-0.711 0.474-0.919 0.852-0.193 0.378-0.267 0.811-0.193 1.233s0.282 0.809 0.593 1.101c0.311 0.29 0.711 0.468 1.141 0.507 4.653 0.379 9.277-1.1 12.833-4.112s5.779-7.312 6.165-11.953l9.558-116.091c0.237-2.887-0.252-5.787-1.408-8.441-1.156-2.656-2.964-4.982-5.246-6.772l-3.912-3.096 4.357-2.411c2.549-1.397 4.698-3.401 6.268-5.831 1.586-2.432 2.534-5.213 2.771-8.099z"></path>
<path fill="#407bff" opacity="0.3" d="M1966.954 925.234c-1.2-5.418-16.138-2.211-19.235-1.713-6.002 1.088-11.885 2.78-17.561 5.052-6.239 2.444-13.485 6.037-19.947 2.322-3.734-2.144 9.232-6.38 10.403-6.811 5.513-1.931 10.833-4.366 15.901-7.275 2.045-1.217 6.017-4.124 4.312-7.076-1.423-2.444-6.506-2.211-9.603-1.836-9.366 1.146-18.554 3.444-27.371 6.845-8.551 3.392-16.938 7.22-25.118 11.466-3.156 1.781-6.609 3.019-10.181 3.659-3.897 0.553-8.684-0.276-10.225-2.432s0.445-4.677 0.904-6.843c0.637-2.592 0.37-5.325-0.771-7.74-0.756-1.62-2.015-2.948-3.601-3.782-4.223-2.211-10.61-1.393-14.849 0.354-2.756 1.162-5.261 2.819-7.41 4.887-4.342 4.022-7.38 9.235-8.743 14.981-0.341 1.801-1.037 3.514-2.045 5.046-1.008 1.531-2.312 2.848-3.823 3.877-5.942 3.992-16.835 3.76-25.163 1.759-14.523-3.44-25.607-11.477-28.275-20.554-1.304-4.323-1.941-8.846-7.765-10.536-3.764-1.107-11.663-0.332-9.973 4.422 0.608 1.303 1.408 2.509 2.371 3.582 1.541 2.024 3.171 5.839-1.393 7.066-1.482 0.313-3.008 0.388-4.52 0.221-14.715-0.984-28.26-5.882-37.048-12.781-2.86-2.244-5.29-4.99-7.158-8.105-1.037-1.713-1.423-3.56-2.564-5.252-1.082-1.627-2.623-2.906-4.431-3.681-5.646-2.421-18.924-1.16-19.858 4.146-0.504 2.875 1.289 5.993 2.208 8.723 0.163 0.345 0.207 0.737 0.119 1.106-0.267 0.696-1.319 0.897-2.223 0.951-11.87 0.785-23.385-3.814-33.358-8.613-10.551-5.086-22.169-11.709-36.825-11.786-3.038-0.138-6.076 0.209-8.995 1.028-0.741 0.197-1.423 0.551-2.015 1.039-0.356 0.372-0.593 0.843-0.682 1.352s-0.015 1.031 0.193 1.501c0.474 0.974 1.186 1.817 2.060 2.454 4.431 3.604 10.64 5.064 16.316 6.922 16.805 5.433 33.047 12.448 48.518 20.951 1.571 0.873 4.342 2.897 2.149 4.422s-6.654 0.542-9.277 0.111c-4.772-0.774-9.351-2.012-13.989-3.173-6.15-1.549-13.308-2.952-19.961-1.67-3.512 0.674-6.654 2.112-8.299 4.057-0.563 0.569-0.948 1.304-1.067 2.097-0.133 0.794 0 1.608 0.356 2.327 2.282 4.057 12.7 5.805 18.376 7.739 7.291 2.479 14.404 5.407 21.325 8.768 5.898 2.918 11.396 6.114 17.383 8.977 21.369 10.227 51.244 11.543 77.948 12.538 28.986 1.106 58.106 0.166 87.003-1.437 21.073-1.172 41.745-3.482 62.374-6.203 5.928-0.774 11.826-1.725 17.738-2.531 6.002-0.686 11.929-1.858 17.738-3.505 2.089-0.532 4.031-1.504 5.705-2.853 1.586-1.472 2.089-3.395-0.756-3.948-5.942-1.183-12.063 0.166-17.872 1.217-6.506 1.194-12.967 2.568-19.369 4.124-2.919 0.775-5.883 1.378-8.862 1.802-3.008 0.421-6.076 0.225-8.995-0.575-0.948-0.299-2.001-0.83-2.045-1.67-0.059-0.84 0.741-1.371 1.556-1.691 11.959-4.733 24.659-7.74 37.463-10.504 8.669-1.879 17.501-3.029 26.259-4.501 7.958-1.337 16.36-1.646 23.266-6.689 1.378-0.885 2.445-2.17 3.068-3.681 0.296-0.778 0.37-1.626 0.207-2.444z"></path>
<path fill="#407bff" opacity="0.3" d="M1623.951 880.467c-3.245-9.21-14.819-25.518-17.264-15.888-1.304 5.406 17.264 15.888 17.264 15.888z"></path>
<path fill="#407bff" opacity="0.3" d="M1914.569 898.598c6.18-5.627 13.9-8.976 14.893-4.023 0.934 4.687-14.893 4.023-14.893 4.023z"></path>
<path fill="#407bff" opacity="0.3" d="M1660.806 853.843c-4.238-2.211-7.543-5.76-5.053-7.242 2.475-1.48 5.053 7.242 5.053 7.242z"></path>
<path fill="#ecf2ff" d="M2013.842 22.449c-0.326 4.089-1.867 7.986-4.431 11.199-2.549 3.213-5.987 5.597-9.899 6.852s-8.091 1.322-12.048 0.195c-3.942-1.127-7.454-3.398-10.121-6.527-2.653-3.129-4.312-6.974-4.787-11.050-0.459-4.076 0.282-8.199 2.164-11.849 1.867-3.65 4.787-6.662 8.373-8.655s7.676-2.879 11.766-2.545c5.483 0.454 10.566 3.066 14.123 7.262s5.305 9.634 4.861 15.118z"></path>
<path fill="#ecf2ff" d="M918.716 50.605c-0.336 4.089-1.879 7.986-4.429 11.199-2.552 3.213-5.999 5.597-9.905 6.852s-8.097 1.322-12.043 0.195c-3.945-1.127-7.467-3.398-10.121-6.527s-4.321-6.974-4.79-11.050c-0.47-4.076 0.28-8.199 2.155-11.849s4.79-6.662 8.376-8.655c3.586-1.993 7.682-2.879 11.771-2.545 5.485 0.454 10.565 3.066 14.124 7.262 3.561 4.196 5.31 9.633 4.864 15.118z"></path>
<path fill="#ecf2ff" d="M124.436 190.78c-0.216 2.627-1.207 5.133-2.848 7.199s-3.856 3.598-6.367 4.404c-2.511 0.806-5.205 0.851-7.741 0.126s-4.801-2.186-6.507-4.197c-1.706-2.011-2.778-4.483-3.079-7.103s0.181-5.271 1.386-7.617c1.205-2.347 3.079-4.283 5.384-5.565s4.939-1.851 7.568-1.636c3.526 0.292 6.791 1.971 9.080 4.668 2.289 2.699 3.413 6.193 3.126 9.72z"></path>
<path fill="#c6d7ff" d="M179.243 495.179c-0.336 4.089-1.879 7.986-4.429 11.199-2.552 3.213-5.999 5.597-9.905 6.852-3.906 1.254-8.097 1.322-12.043 0.194-3.945-1.126-7.467-3.398-10.121-6.526s-4.321-6.974-4.79-11.051c-0.469-4.075 0.281-8.199 2.155-11.849 1.874-3.648 4.789-6.661 8.375-8.654s7.682-2.879 11.771-2.544c5.485 0.453 10.565 3.065 14.124 7.261 3.561 4.197 5.31 9.634 4.864 15.118z"></path>
<path fill="#c6d7ff" d="M1123.22 773.778c-0.336 4.089-1.879 7.986-4.429 11.199-2.552 3.213-5.999 5.597-9.905 6.852s-8.097 1.322-12.043 0.194c-3.945-1.126-7.467-3.398-10.121-6.526s-4.321-6.974-4.79-11.051c-0.47-4.075 0.28-8.199 2.155-11.849 1.875-3.648 4.79-6.661 8.376-8.654s7.682-2.879 11.771-2.544c5.485 0.453 10.565 3.065 14.124 7.261 3.561 4.197 5.31 9.634 4.864 15.118z"></path>
<path fill="#c6d7ff" d="M2055.335 754.513c-0.326 4.089-1.867 7.986-4.431 11.199-2.549 3.213-5.987 5.597-9.899 6.852s-8.091 1.322-12.048 0.194c-3.942-1.126-7.454-3.398-10.121-6.526-2.653-3.128-4.312-6.974-4.787-11.051-0.459-4.075 0.282-8.199 2.164-11.849 1.867-3.648 4.787-6.661 8.373-8.654s7.676-2.879 11.766-2.544c5.483 0.453 10.566 3.065 14.123 7.261s5.305 9.634 4.861 15.118z"></path>
<path fill="#9ebbff" opacity="0.7" d="M1085.053 179.068h-2.334c-3.723-0.256-7.359-1.248-10.696-2.916-3.339-1.67-6.313-3.983-8.752-6.809-2.399-2.816-4.215-6.079-5.341-9.603-1.128-3.523-1.543-7.235-1.223-10.919 0.452-5.449 2.482-10.647 5.84-14.962s7.899-7.557 13.069-9.334c5.17-1.776 10.745-2.008 16.045-0.669s10.095 4.194 13.8 8.213c3.706 4.020 6.16 9.032 7.066 14.423s0.221 10.931-1.969 15.94c-2.19 5.010-5.79 9.274-10.363 12.27-4.572 2.996-9.917 4.598-15.384 4.607l0.243-0.243zM1085.053 126.354c-5.529 0.027-10.885 1.94-15.182 5.421s-7.279 8.324-8.453 13.728c-1.175 5.404-0.473 11.049 1.992 16s6.543 8.914 11.562 11.236c5.019 2.321 10.68 2.86 16.048 1.531 5.367-1.331 10.121-4.45 13.478-8.847 3.357-4.395 5.113-9.804 4.981-15.333-0.13-5.529-2.144-10.848-5.705-15.079-2.075-2.46-4.618-4.482-7.481-5.952s-5.988-2.355-9.197-2.607l-2.042-0.097z"></path>
<path fill="#9ebbff" opacity="0.7" d="M338.108 247.286h-1.842c-2.94-0.202-5.811-0.984-8.445-2.301-2.636-1.319-4.984-3.146-6.909-5.376-1.894-2.223-3.328-4.798-4.218-7.58s-1.218-5.711-0.965-8.622c0.357-4.301 1.959-8.405 4.61-11.811s6.236-5.966 10.319-7.368c4.081-1.403 8.482-1.586 12.666-0.529 4.185 1.058 7.97 3.312 10.895 6.485 2.925 3.174 4.864 7.131 5.578 11.387s0.175 8.629-1.555 12.584c-1.729 3.955-4.572 7.321-8.182 9.686-3.608 2.367-7.829 3.631-12.144 3.638l0.191-0.193zM338.108 205.671c-4.366 0.021-8.594 1.531-11.986 4.28-3.392 2.747-5.747 6.571-6.673 10.837-0.928 4.266-0.373 8.723 1.572 12.632 1.946 3.908 5.164 7.038 9.127 8.869 3.963 1.833 8.432 2.26 12.67 1.209 4.237-1.049 7.99-3.514 10.64-6.984s4.037-7.74 3.933-12.106c-0.105-4.364-1.694-8.564-4.505-11.904-1.639-1.941-3.645-3.539-5.905-4.699-2.26-1.159-4.729-1.86-7.261-2.058l-1.612-0.076z"></path>
<path fill="#c6d7ff" opacity="0.7" d="M55.126 862.229h-2.334c-3.723-0.256-7.359-1.248-10.698-2.916-3.338-1.67-6.313-3.983-8.751-6.809-2.399-2.816-4.215-6.079-5.342-9.603s-1.542-7.235-1.222-10.919c0.453-5.449 2.483-10.648 5.841-14.961s7.899-7.558 13.069-9.333c5.17-1.777 10.745-2.009 16.045-0.67s10.095 4.194 13.8 8.214c3.705 4.020 6.16 9.031 7.065 14.423 0.905 5.391 0.221 10.931-1.969 15.939-2.19 5.010-5.791 9.274-10.363 12.27s-9.918 4.598-15.384 4.607l0.243-0.243zM55.126 809.514c-5.53 0.028-10.885 1.94-15.182 5.421s-7.279 8.324-8.454 13.728-0.472 11.049 1.992 16c2.464 4.951 6.542 8.914 11.562 11.236s10.68 2.86 16.048 1.531c5.368-1.331 10.122-4.45 13.478-8.847 3.356-4.395 5.113-9.804 4.981-15.333s-2.144-10.848-5.706-15.080c-2.075-2.458-4.618-4.481-7.481-5.951s-5.989-2.355-9.197-2.607l-2.042-0.098z"></path>
<path fill="#c6d7ff" opacity="0.7" d="M1019.943 522.794h-3.071c-4.899-0.336-9.684-1.64-14.077-3.837s-8.306-5.243-11.514-8.961c-3.156-3.703-5.545-7.998-7.029-12.633-1.482-4.635-2.029-9.52-1.608-14.369 0.596-7.168 3.266-14.008 7.685-19.686 4.418-5.676 10.393-9.944 17.196-12.281s14.137-2.642 21.111-0.88c6.974 1.763 13.282 5.519 18.158 10.808s8.106 11.883 9.296 18.979c1.191 7.094 0.29 14.382-2.59 20.973-2.882 6.592-7.62 12.201-13.635 16.144-6.017 3.943-13.050 6.051-20.243 6.062l0.32-0.32zM1019.943 453.433c-7.276 0.037-14.323 2.552-19.976 7.134s-9.578 10.951-11.123 18.063-0.621 14.538 2.621 21.052c3.242 6.514 8.608 11.729 15.213 14.784 6.603 3.054 14.051 3.764 21.116 2.014 7.063-1.749 13.318-5.855 17.733-11.639s6.728-12.902 6.554-20.176-2.822-14.274-7.507-19.841c-2.73-3.236-6.076-5.898-9.843-7.832-3.767-1.932-7.879-3.099-12.101-3.431l-2.687-0.127z"></path>
<path fill="#9ebbff" opacity="0.7" d="M2075.015 516.905h-2.697c-4.312-0.296-8.521-1.443-12.389-3.377-3.868-1.932-7.306-4.612-10.136-7.884-2.771-3.26-4.875-7.039-6.18-11.119-1.304-4.078-1.793-8.377-1.423-12.644 0.533-6.308 2.875-12.328 6.772-17.324 3.883-4.996 9.143-8.751 15.13-10.808 5.987-2.055 12.433-2.325 18.568-0.774s11.692 4.856 15.99 9.511c4.283 4.653 7.128 10.456 8.18 16.7 1.037 6.243 0.252 12.657-2.282 18.457s-6.713 10.736-12.003 14.207c-5.29 3.471-11.485 5.325-17.813 5.335l0.282-0.282zM2075.015 455.868c-6.402 0.031-12.596 2.245-17.575 6.276s-8.432 9.638-9.795 15.896c-1.349 6.258-0.548 12.793 2.312 18.525 2.845 5.734 7.573 10.323 13.382 13.010 5.824 2.688 12.374 3.314 18.583 1.774 6.224-1.54 11.722-5.154 15.605-10.243 3.897-5.090 5.928-11.353 5.779-17.755-0.163-6.403-2.49-12.562-6.609-17.461-2.401-2.848-5.35-5.19-8.669-6.891-3.305-1.701-6.935-2.728-10.64-3.019l-2.371-0.113z"></path>
</svg>
