<!-- Generated by IcoMoon.io -->
<svg version="1.1" xmlns="http://www.w3.org/2000/svg" width="983" height="1024" viewBox="0 0 983 1024">
<title></title>
<g id="icomoon-ignore">
</g>
<path fill="#9ebbff" d="M-512 430.080l102.506 12.374c102.508 12.372 307.52 37.12 512.534 123.732 205.014 86.614 410.026 235.094 615.040 309.334s410.026 74.24 615.040 86.614c205.018 12.372 410.022 37.12 512.538 49.492l102.502 12.374h-102.502c-102.515 0-307.52 0-512.538 0-205.014 0-410.026 0-615.040 0s-410.026 0-615.040 0c-205.013 0-410.026 0-512.534 0h-102.506v-593.92z"></path>
<path fill="#ecf2ff" opacity="0.8" d="M2440.96 0h-82.022c-82.035 0-246.080 0-410.138 52.148-164.058 49.778-328.102 151.703-492.16 151.703s-328.106-101.926-492.16-16.593c-164.054 85.334-328.106 357.926-492.16 495.407s-328.106 137.482-492.16 101.926c-164.054-33.185-328.106-101.926-410.134-135.112l-82.026-35.555v410.074h82.026c82.028 0 246.080 0 410.134 0s328.106 0 492.16 0c164.054 0 328.106 0 492.16 0s328.102 0 492.16 0c164.058 0 328.102 0 492.16 0s328.102 0 410.138 0h82.022v-1024z"></path>
<path fill="#c6d7ff" d="M10.181 709.311c-0.291 3.532-1.622 6.898-3.826 9.673s-5.181 4.835-8.555 5.919c-3.374 1.083-6.994 1.142-10.402 0.168-3.408-0.973-6.45-2.935-8.743-5.637s-3.732-6.024-4.137-9.545c-0.405-3.52 0.243-7.082 1.862-10.235 1.619-3.151 4.136-5.754 7.234-7.475s6.636-2.487 10.168-2.198c4.737 0.392 9.125 2.647 12.199 6.272s4.586 8.321 4.2 13.059z"></path>
<path fill="#ecf2ff" d="M15.322 313.266c-0.187 2.269-1.043 4.434-2.46 6.218s-3.331 3.108-5.5 3.804c-2.169 0.696-4.496 0.735-6.687 0.109s-4.146-1.888-5.62-3.625c-1.474-1.737-2.399-3.872-2.66-6.135s0.156-4.553 1.197-6.579c1.041-2.028 2.659-3.699 4.65-4.806s4.266-1.599 6.537-1.413c3.045 0.252 5.866 1.702 7.843 4.032 1.977 2.331 2.948 5.349 2.7 8.396z"></path>
<path fill="#9ebbff" opacity="0.7" d="M34.761 510.554h-1.592c-2.539-0.174-5.018-0.85-7.295-1.988-2.276-1.139-4.305-2.717-5.968-4.644-1.636-1.92-2.874-4.145-3.642-6.547s-1.052-4.933-0.834-7.447c0.309-3.715 1.693-7.26 3.983-10.202s5.386-5.153 8.912-6.364c3.525-1.212 7.327-1.37 10.941-0.457s6.884 2.861 9.41 5.601c2.527 2.742 4.201 6.159 4.818 9.836s0.15 7.453-1.343 10.87c-1.493 3.416-3.949 6.323-7.066 8.366s-6.763 3.136-10.49 3.142l0.166-0.166zM34.761 474.609c-3.771 0.018-7.423 1.322-10.353 3.697-2.93 2.373-4.963 5.676-5.764 9.361s-0.322 7.534 1.358 10.911c1.68 3.375 4.461 6.079 7.884 7.661 3.423 1.583 7.283 1.952 10.943 1.044 3.66-0.906 6.902-3.035 9.191-6.033s3.486-6.685 3.397-10.456c-0.090-3.77-1.462-7.397-3.891-10.282-1.415-1.677-3.149-3.057-5.101-4.059-1.952-1.001-4.084-1.606-6.271-1.778l-1.393-0.065z"></path>
<path fill="#ecf2ff" d="M483.781 295.871c-0.291 3.532-1.623 6.898-3.826 9.673s-5.181 4.835-8.556 5.919c-3.374 1.083-6.994 1.142-10.403 0.168-3.407-0.973-6.45-2.935-8.742-5.637s-3.732-6.024-4.137-9.545c-0.406-3.52 0.242-7.082 1.861-10.235 1.619-3.151 4.137-5.754 7.235-7.475s6.636-2.487 10.167-2.198c4.737 0.392 9.125 2.647 12.2 6.272 3.076 3.625 4.586 8.321 4.201 13.059z"></path>
<path fill="#c6d7ff" opacity="0.7" d="M752.975 178.924h-2.652c-4.232-0.291-8.365-1.417-12.159-3.314-3.794-1.898-7.174-4.529-9.946-7.74-2.726-3.199-4.79-6.908-6.071-10.912-1.28-4.004-1.752-8.223-1.389-12.411 0.515-6.191 2.821-12.1 6.638-17.003s8.977-8.589 14.853-10.607c5.875-2.019 12.211-2.283 18.235-0.76s11.473 4.766 15.684 9.335c4.211 4.568 7.002 10.264 8.029 16.393 1.029 6.127 0.251 12.422-2.237 18.116-2.49 5.693-6.582 10.538-11.777 13.944-5.197 3.406-11.272 5.226-17.485 5.236l0.276-0.276zM752.975 119.013c-6.285 0.031-12.371 2.204-17.254 6.161s-8.273 9.46-9.608 15.602c-1.335 6.143-0.536 12.557 2.264 18.184s7.436 10.131 13.14 12.769c5.704 2.638 12.137 3.251 18.239 1.74 6.1-1.51 11.503-5.057 15.316-10.053s5.811-11.144 5.661-17.427-2.437-12.329-6.484-17.138c-2.358-2.795-5.248-5.095-8.502-6.764s-6.806-2.677-10.452-2.963l-2.321-0.11z"></path>
<path fill="#c6d7ff" d="M784.581 448.191c-0.291 3.532-1.623 6.898-3.826 9.673s-5.181 4.835-8.556 5.919c-3.374 1.083-6.994 1.142-10.403 0.168-3.407-0.973-6.45-2.935-8.742-5.637s-3.732-6.024-4.137-9.545c-0.406-3.52 0.242-7.082 1.861-10.235 1.619-3.151 4.137-5.754 7.235-7.475s6.636-2.487 10.167-2.198c4.737 0.392 9.125 2.647 12.2 6.272s4.586 8.321 4.201 13.059z"></path>
<path fill="#9ebbff" opacity="0.7" d="M975.656 351.757h-2.335c-3.724-0.256-7.36-1.247-10.7-2.917-3.338-1.669-6.313-3.983-8.751-6.81-2.4-2.816-4.216-6.080-5.343-9.604-1.128-3.523-1.542-7.236-1.222-10.921 0.453-5.449 2.483-10.648 5.841-14.963s7.9-7.558 13.071-9.335c5.17-1.775 10.746-2.008 16.047-0.668 5.3 1.34 10.095 4.195 13.801 8.215s6.161 9.032 7.067 14.424c0.905 5.393 0.22 10.932-1.97 15.942s-5.792 9.274-10.364 12.271c-4.572 2.998-9.919 4.599-15.386 4.608l0.243-0.243zM975.656 299.036c-5.531 0.027-10.888 1.939-15.185 5.421-4.297 3.483-7.279 8.325-8.454 13.731s-0.472 11.050 1.992 16.001c2.465 4.952 6.543 8.916 11.564 11.237s10.682 2.862 16.050 1.532 10.124-4.452 13.48-8.847c3.356-4.397 5.114-9.806 4.982-15.336s-2.144-10.851-5.706-15.082c-2.075-2.46-4.618-4.483-7.482-5.952s-5.989-2.356-9.198-2.607l-2.042-0.097z"></path>
<path fill="#f5f5f5" d="M829.44 960c141.999 0 257.114-6.72 257.114-15.011 0-8.289-115.114-15.011-257.114-15.011s-257.114 6.721-257.114 15.011c0 8.291 115.113 15.011 257.114 15.011z"></path>
<path fill="#407bff" opacity="0.1" d="M679.991 840.196c0.159-1.194 0.769-2.282 1.708-3.040 0.937-0.756 2.13-1.126 3.331-1.030 11.352-0.173 21.974 7.85 31.826 16.456 2.189 1.896 4.562 3.858 7.016 1.87 0.759-0.628 1.313-1.469 1.591-2.414 0.425-1.545 0.425-3.176 0-4.721-0.365-1.275-0.973-2.469-1.791-3.514-4.283-5.636-9.494-8.34-13.724-14.162-2.369-3.334-4.333-6.94-5.848-10.74-1.326-3.341-3.978-8.739-2.917-13.26 1.18-5.411 5.225-4.946 7.677-4.204 7.758 2.321 14.998 7.85 21.576 14.732 7.014 7.319 13.367 16.137 19.693 24.902 2.386 3.328 4.906 6.749 7.956 7.956 3.049 1.206 6.908-0.744 8.195-5.544s-0.225-10.316-0.544-15.090c-0.425-5.696-0.15-11.423 0.823-17.052 0.43-2.976 1.435-5.839 2.957-8.433 3.421-5.012 8.486-3.249 11.802 0.543 2.531 3.173 4.488 6.762 5.782 10.609 3.721 10.625 5.952 21.714 6.63 32.951 0.504 6.962 1.565 14.214 4.43 19.611 4.627 8.726 13.261 8.036 19.956 3.461 11.657-7.955 20.648-25.937 23.048-46.038 0.782-6.551 0.982-13.632 3.368-19.122 2.083-4.746 7.427-7.955 10.039-2.838 1.052 2.56 1.347 5.367 0.849 8.090-0.468 2.696-1.129 5.354-1.976 7.955-1.326 4.508-2.652 12.955 0.929 15.594 0.534 0.324 1.132 0.527 1.752 0.596s1.249 0.001 1.841-0.198c11.722-2.44 22.623-13.472 29.784-28.868 2.595-5.793 4.576-11.841 5.914-18.047 0.863-3.793 1.22-7.863 2.175-11.629 0.612-2.963 1.851-5.763 3.634-8.207 4.562-5.463 15.091-2.892 15.688 8.818 0.358 6.775-1.445 13.405-2.108 20.036-0.412 4.137 2.148 4.11 4.058 3.977 9.149-0.928 17.239-10.157 24.412-19.757 8.527-11.416 17.969-26.241 29.612-26.679 2.652-0.093 7.068 0.252 8.659 4.349 0.739 2.51 0.739 5.18 0 7.69-2.36 9.786-9.283 14.838-14.587 19.679-14.954 14.025-28.108 29.856-39.159 47.126-1.683 2.652-3.421 7.027-1.816 9.627 0.307 0.494 0.755 0.884 1.288 1.121s1.123 0.307 1.696 0.205c5.477-0.425 10.609-4.774 15.608-8.381s10.675-6.762 15.913-4.044c1.614 0.969 3.021 2.248 4.14 3.763 1.117 1.517 1.923 3.238 2.372 5.068 0.936 3.206 1.085 6.589 0.436 9.865-1.923 9.004-10.237 13.048-14.812 17.49-6.299 6.077-12.067 12.684-17.239 19.745-4.773 6.537-9.283 13.697-14.056 20.115-17.239 22.979-41.108 26.387-62.326 29.052-23.087 2.89-46.227 1.326-69.181-1.71-16.696-2.228-33.152-6.975-49.45-12.611-5.596-2.029-11.153-4.243-16.643-6.868-5.901-2.811-14.587-4.548-16.854-15.621-0.477-2.386 0.079-4.323 1.658-5.211 4.893-2.784 11.868 0.942 16.47 3.395 6.351 3.395 12.372 8.234 18.897 10.847 1.048 0.516 2.191 0.813 3.357 0.874 1.167 0.061 2.335-0.114 3.432-0.516 1.076-0.452 1.962-1.262 2.506-2.294 0.694-1.345 0.864-2.899 0.477-4.362-0.269-0.791-0.723-1.505-1.326-2.083-11.743-12.035-25.774-21.601-41.267-28.137-4.973-2.135-10.052-3.886-14.839-6.909-3.869-2.392-7.209-5.551-9.812-9.281-2.228-3.567-5.809-9.866-4.681-15.555z"></path>
<path fill="#407bff" opacity="0.1" d="M933.629 742.721c-0.886 0.919-2.047 1.523-3.308 1.723s-2.551-0.017-3.677-0.616-2.028-1.549-2.566-2.706c-0.539-1.156-0.686-2.456-0.42-3.704 4.575-22.211 14.52-38.362 26.349-29.981 8.832 6.245-5.012 23.47-16.378 35.284z"></path>
<path fill="#407bff" opacity="0.3" d="M901.54 753.092c3.617-1.997 6.684-4.859 8.927-8.329 2.241-3.471 3.589-7.443 3.923-11.561l8.964-109.197c0.465-5.613-0.25-11.261-2.097-16.582s-4.787-10.195-8.631-14.313l-27.622-29.583c-1.521-1.636-2.683-3.57-3.416-5.678-0.732-2.109-1.019-4.348-0.841-6.574l1.326-15.991-71.489-5.874-1.326 15.991c-0.182 2.225-0.828 4.387-1.894 6.349-1.066 1.961-2.529 3.679-4.298 5.042l-32.091 24.703c-4.461 3.438-8.155 7.77-10.844 12.718-2.691 4.948-4.317 10.404-4.777 16.017l-8.978 109.196c-0.339 4.113 0.344 8.246 1.989 12.031s4.201 7.105 7.439 9.663c-3.617 1.996-6.683 4.858-8.923 8.328s-3.585 7.444-3.913 11.562l-11.444 139.229c-0.539 6.62 1.572 13.183 5.868 18.248 4.297 5.064 10.428 8.216 17.047 8.763l118.021 9.693c3.278 0.27 6.577-0.108 9.708-1.111 3.132-1.005 6.035-2.616 8.543-4.744 2.509-2.126 4.573-4.726 6.077-7.651s2.415-6.117 2.685-9.395l11.443-139.229c0.351-4.113-0.323-8.248-1.958-12.037s-4.183-7.117-7.416-9.682z"></path>
<path fill="#407bff" opacity="0.3" d="M810.604 529.434l-1.014 12.329 71.474 5.876 1.014-12.33-71.474-5.875z"></path>
<path fill="#fff" opacity="0.3" d="M911.963 595.96l-27.622-29.609c0 0-17.81 0.769-3.978 22.607 11.789 18.472 32.329 15.594 31.601 7.002z"></path>
<path fill="#407bff" opacity="0.2" d="M731.535 900.184c-0.539 6.619 1.572 13.181 5.868 18.246s10.428 8.216 17.047 8.764l118.021 9.693c3.278 0.27 6.577-0.108 9.708-1.112s6.034-2.616 8.543-4.742 4.573-4.727 6.077-7.652c1.503-2.925 2.415-6.116 2.684-9.394l-167.948-13.804z"></path>
<path fill="#407bff" opacity="0.3" d="M906.804 598.52c3.085 3.308 5.444 7.222 6.929 11.494s2.060 8.806 1.691 13.315l-8.965 109.21c-0.233 2.807-1.156 5.513-2.688 7.877-1.531 2.364-3.624 4.314-6.090 5.674l-10.436 5.782 9.349 7.411c2.212 1.743 3.958 4.008 5.082 6.589s1.592 5.403 1.362 8.209l-11.443 139.231c-0.369 4.512-2.513 8.692-5.961 11.626s-7.919 4.379-12.433 4.020l-118.021-9.693c-2.241-0.178-4.425-0.795-6.428-1.816-2.002-1.021-3.784-2.428-5.243-4.138s-2.568-3.692-3.261-5.829c-0.694-2.139-0.959-4.393-0.781-6.634l11.444-139.229c0.228-2.81 1.148-5.518 2.678-7.885 1.528-2.367 3.62-4.317 6.086-5.681l10.437-5.782-9.283-7.412c-2.212-1.742-3.958-4.006-5.083-6.588s-1.592-5.403-1.362-8.21l8.978-109.196c0.371-4.508 1.681-8.888 3.844-12.861s5.13-7.451 8.713-10.211c10.609-6.856 38.458 10.211 71.066 12.888 32.608 2.679 53.004-5.595 59.82-2.161z"></path>
<path fill="#407bff" opacity="0.2" d="M846.918 600.695c-32.595-2.652-60.47-19.758-71.078-12.902 18.565 10.211 39.782 16.535 70.561 19.068s60.402-8.34 60.402-8.34c-6.816-3.434-27.291 4.865-59.885 2.175z"></path>
<path fill="#407bff" opacity="0.2" d="M746.388 719.424c-0.339 4.113 0.344 8.246 1.989 12.031s4.201 7.105 7.439 9.663l145.723 11.935c3.617-1.997 6.684-4.859 8.927-8.329 2.243-3.471 3.59-7.443 3.923-11.562l-168.001-13.737z"></path>
<path fill="#407bff" d="M883.571 515.753l-71.273-5.878c-2.986-0.246-5.604 1.974-5.848 4.96l-1.422 17.339c-0.244 2.985 1.978 5.604 4.963 5.851l71.274 5.878c2.985 0.246 5.603-1.975 5.848-4.96l1.421-17.339c0.244-2.985-1.978-5.605-4.963-5.851z"></path>
<path fill="#fff" opacity="0.2" d="M813.608 535.35c-0.087-0.008-0.173-0.031-0.251-0.070s-0.147-0.095-0.204-0.161c-0.056-0.067-0.1-0.143-0.127-0.227s-0.037-0.172-0.029-0.259l1.67-20.977c0.014-0.177 0.099-0.339 0.233-0.453 0.133-0.115 0.308-0.172 0.484-0.157s0.339 0.097 0.453 0.232c0.114 0.134 0.17 0.308 0.156 0.485l-1.723 20.964c-0.010 0.169-0.084 0.328-0.209 0.443-0.123 0.116-0.285 0.18-0.454 0.18z"></path>
<path fill="#fff" opacity="0.2" d="M826.536 536.41c-0.087-0.006-0.172-0.031-0.25-0.070s-0.147-0.093-0.204-0.16c-0.058-0.067-0.1-0.143-0.127-0.227s-0.037-0.172-0.029-0.259l1.724-20.964c0.017-0.175 0.1-0.337 0.234-0.451s0.306-0.17 0.481-0.16c0.087 0.006 0.172 0.031 0.248 0.070s0.146 0.095 0.201 0.161c0.056 0.068 0.097 0.145 0.123 0.228s0.033 0.17 0.024 0.257l-1.764 20.964c-0.015 0.165-0.092 0.319-0.215 0.431-0.122 0.113-0.282 0.175-0.448 0.178z"></path>
<path fill="#fff" opacity="0.2" d="M839.452 537.524c-0.087-0.008-0.172-0.031-0.25-0.070s-0.147-0.095-0.205-0.161c-0.056-0.067-0.099-0.143-0.125-0.227s-0.037-0.172-0.029-0.259l1.723-20.964c0.020-0.174 0.105-0.333 0.238-0.445 0.133-0.114 0.305-0.173 0.479-0.165 0.087 0.008 0.172 0.031 0.25 0.070s0.147 0.095 0.204 0.161c0.058 0.067 0.1 0.143 0.127 0.227s0.037 0.172 0.029 0.259l-1.723 20.964c-0.008 0.087-0.031 0.172-0.070 0.25s-0.095 0.147-0.161 0.205c-0.067 0.056-0.143 0.1-0.227 0.125-0.083 0.027-0.172 0.037-0.259 0.031z"></path>
<path fill="#fff" opacity="0.2" d="M852.381 538.532c-0.087-0.006-0.173-0.031-0.251-0.070s-0.147-0.095-0.204-0.161c-0.056-0.067-0.1-0.143-0.127-0.227s-0.037-0.17-0.029-0.259l1.724-20.964c0.017-0.174 0.101-0.335 0.234-0.449s0.306-0.172 0.481-0.16c0.087 0.006 0.172 0.031 0.248 0.070 0.078 0.040 0.146 0.095 0.202 0.161 0.055 0.067 0.097 0.143 0.122 0.227s0.035 0.172 0.026 0.257l-1.724 20.964c-0.005 0.087-0.028 0.172-0.065 0.25s-0.092 0.147-0.157 0.204c-0.065 0.058-0.142 0.1-0.224 0.128s-0.17 0.036-0.256 0.029z"></path>
<path fill="#fff" opacity="0.2" d="M865.244 539.593c-0.087-0.008-0.172-0.031-0.25-0.070s-0.147-0.095-0.204-0.161c-0.056-0.067-0.1-0.143-0.127-0.227s-0.037-0.172-0.029-0.259l1.724-20.964c0.023-0.172 0.109-0.33 0.241-0.443s0.302-0.172 0.475-0.166c0.087 0.006 0.173 0.029 0.251 0.069s0.147 0.095 0.204 0.161 0.1 0.143 0.127 0.227c0.027 0.083 0.036 0.172 0.029 0.259l-1.724 20.964c-0.005 0.088-0.028 0.174-0.067 0.252s-0.093 0.15-0.161 0.206c-0.067 0.058-0.145 0.1-0.228 0.127s-0.173 0.035-0.261 0.026z"></path>
<path fill="#fff" opacity="0.2" d="M878.227 540.653c-0.087-0.006-0.172-0.031-0.25-0.070s-0.147-0.093-0.205-0.16c-0.056-0.067-0.099-0.143-0.125-0.227s-0.037-0.172-0.029-0.259l1.67-20.978c0.017-0.174 0.101-0.335 0.234-0.449s0.306-0.172 0.481-0.16c0.174 0.017 0.334 0.101 0.445 0.236 0.113 0.134 0.166 0.306 0.152 0.48l-1.711 20.978c-0.017 0.165-0.092 0.319-0.215 0.431s-0.282 0.175-0.448 0.178z"></path>
<path fill="#407bff" opacity="0.2" d="M768.44 682.947c-2.015-11.153-18.259-10.356-19.188 0.928l-2.917 35.549c-0.339 4.113 0.344 8.246 1.989 12.031s4.201 7.105 7.439 9.663c-3.617 1.996-6.683 4.858-8.924 8.328s-3.584 7.444-3.912 11.562l-11.444 139.229c-0.539 6.62 1.571 13.183 5.868 18.248 4.297 5.064 10.428 8.216 17.047 8.763l30.5 2.506c3.36 0.275 6.739-0.225 9.874-1.463 3.136-1.239 5.946-3.181 8.211-5.677s3.928-5.481 4.858-8.721c0.929-3.241 1.101-6.652 0.502-9.97l-39.901-220.977z"></path>
<path fill="#407bff" opacity="0.3" d="M885.798 865.257c-0.211 2.556-1.174 4.992-2.769 7-1.596 2.010-3.75 3.5-6.193 4.283-2.441 0.785-5.061 0.827-7.526 0.123-2.467-0.705-4.668-2.125-6.327-4.081s-2.702-4.358-2.995-6.907c-0.293-2.547 0.177-5.125 1.348-7.406 1.171-2.282 2.993-4.164 5.235-5.411s4.803-1.8 7.359-1.591c3.428 0.284 6.604 1.916 8.828 4.54 2.225 2.623 3.319 6.021 3.040 9.449z"></path>
<path fill="#407bff" opacity="0.3" d="M844.571 815.043c-0.147 1.809-0.828 3.533-1.956 4.955s-2.653 2.478-4.381 3.034-3.581 0.586-5.327 0.087c-1.745-0.498-3.304-1.503-4.477-2.886-1.175-1.384-1.912-3.085-2.12-4.888s0.124-3.628 0.954-5.242c0.829-1.614 2.12-2.947 3.706-3.828s3.4-1.272 5.208-1.124c2.424 0.204 4.668 1.358 6.241 3.213 1.573 1.853 2.348 4.256 2.153 6.68z"></path>
<path fill="#407bff" opacity="0.3" d="M806.207 703.274c-1.812 0.083-3.608-0.371-5.162-1.307s-2.796-2.312-3.567-3.953c-0.773-1.642-1.041-3.475-0.772-5.268 0.269-1.795 1.065-3.469 2.285-4.81 1.22-1.343 2.811-2.294 4.571-2.732s3.611-0.347 5.318 0.266 3.195 1.718 4.275 3.176c1.079 1.457 1.702 3.203 1.791 5.014 0.059 1.206-0.12 2.41-0.527 3.546s-1.036 2.181-1.847 3.073c-0.812 0.893-1.792 1.618-2.884 2.131-1.092 0.515-2.275 0.808-3.48 0.864z"></path>
<path fill="#407bff" opacity="0.3" d="M831.231 648.417c-1.284 0.064-2.559-0.255-3.662-0.915s-1.987-1.635-2.536-2.797c-0.55-1.162-0.742-2.463-0.553-3.734s0.751-2.46 1.617-3.412c0.864-0.951 1.993-1.626 3.241-1.937 1.248-0.31 2.56-0.243 3.77 0.192s2.264 1.221 3.028 2.255c0.763 1.036 1.202 2.273 1.262 3.558 0.079 1.716-0.525 3.396-1.681 4.668s-2.769 2.035-4.486 2.121z"></path>
<path fill="#407bff" opacity="0.3" d="M871.491 775.38c-0.063 0.748-0.346 1.459-0.812 2.045s-1.098 1.021-1.811 1.249c-0.714 0.229-1.48 0.241-2.2 0.035s-1.364-0.622-1.848-1.194c-0.485-0.571-0.79-1.274-0.876-2.019s0.051-1.498 0.393-2.164c0.343-0.667 0.874-1.217 1.53-1.582 0.654-0.365 1.403-0.526 2.15-0.466 1.004 0.084 1.932 0.563 2.583 1.33 0.652 0.768 0.972 1.763 0.891 2.766z"></path>
<path fill="#fff" opacity="0.7" d="M802.799 879.127h-0.636c-1.015-0.069-2.007-0.339-2.917-0.795s-1.722-1.087-2.387-1.857c-0.654-0.767-1.149-1.658-1.457-2.618s-0.421-1.972-0.334-2.977c0.124-1.486 0.677-2.903 1.594-4.079 0.915-1.176 2.154-2.061 3.564-2.546s2.931-0.548 4.376-0.182c1.445 0.365 2.753 1.143 3.763 2.24s1.681 2.463 1.928 3.932c0.247 1.471 0.060 2.981-0.538 4.347-0.596 1.366-1.58 2.528-2.826 3.346s-2.705 1.253-4.196 1.256l0.067-0.067zM802.799 864.754c-1.508 0.008-2.968 0.529-4.141 1.478-1.171 0.948-1.985 2.269-2.305 3.743s-0.128 3.013 0.544 4.362c0.672 1.35 1.784 2.431 3.153 3.064s2.913 0.78 4.376 0.417c1.464-0.362 2.761-1.213 3.676-2.412s1.394-2.674 1.358-4.182-0.584-2.958-1.555-4.111c-0.566-0.671-1.26-1.222-2.040-1.623s-1.633-0.643-2.509-0.712l-0.557-0.026z"></path>
<path fill="#fff" opacity="0.7" d="M884.817 723.959h-0.463c-1.473-0.122-2.838-0.822-3.794-1.948s-1.428-2.586-1.312-4.059c0.122-1.475 0.824-2.842 1.953-3.799s2.592-1.427 4.068-1.306c1.472 0.122 2.836 0.822 3.794 1.948s1.428 2.586 1.311 4.059c-0.125 1.475-0.826 2.842-1.949 3.805-1.010 0.847-2.289 1.308-3.607 1.299zM880.242 718.006c-0.065 0.901 0.137 1.802 0.581 2.589s1.111 1.426 1.917 1.836c0.806 0.41 1.715 0.571 2.614 0.466 0.897-0.105 1.745-0.474 2.433-1.059 0.46-0.39 0.838-0.867 1.115-1.403 0.275-0.536 0.443-1.123 0.492-1.723 0.050-0.602-0.020-1.206-0.205-1.78-0.184-0.573-0.481-1.106-0.872-1.565-0.404-0.447-0.895-0.808-1.441-1.062-0.547-0.256-1.138-0.399-1.741-0.422-0.6-0.051-1.204 0.018-1.778 0.201s-1.106 0.477-1.565 0.867c-0.46 0.389-0.837 0.865-1.112 1.402s-0.442 1.121-0.49 1.722l0.052-0.067z"></path>
<path fill="#fff" opacity="0.7" d="M799.139 606.396h-0.198c-0.685-0.068-1.317-0.398-1.763-0.923s-0.669-1.202-0.625-1.888c0.033-0.516 0.218-1.011 0.529-1.423s0.736-0.726 1.222-0.901c0.486-0.174 1.014-0.202 1.517-0.082 0.502 0.122 0.959 0.387 1.312 0.763 0.355 0.378 0.59 0.849 0.68 1.358 0.088 0.509 0.027 1.033-0.178 1.508s-0.544 0.879-0.975 1.164c-0.431 0.284-0.937 0.436-1.454 0.438l-0.067-0.013zM797.535 603.665c-0.026 0.316 0.044 0.632 0.198 0.909s0.387 0.5 0.669 0.645c0.282 0.145 0.6 0.202 0.915 0.166s0.612-0.165 0.854-0.37c0.242-0.205 0.417-0.476 0.504-0.781s0.083-0.628-0.013-0.931-0.28-0.568-0.527-0.765c-0.248-0.198-0.548-0.319-0.864-0.346-0.211-0.020-0.425 0.003-0.627 0.067s-0.389 0.166-0.552 0.303c-0.161 0.137-0.294 0.306-0.39 0.494s-0.154 0.397-0.168 0.608z"></path>
<path fill="#fff" opacity="0.7" d="M857.779 675.069h-0.557c-0.873-0.068-1.724-0.308-2.504-0.708s-1.472-0.948-2.038-1.617c-0.566-0.668-0.995-1.443-1.26-2.277s-0.362-1.713-0.287-2.586c0.114-1.28 0.596-2.5 1.39-3.511s1.865-1.769 3.082-2.182c1.216-0.413 2.528-0.465 3.773-0.146 1.245 0.317 2.372 0.991 3.241 1.937s1.446 2.125 1.658 3.393c0.212 1.267 0.051 2.569-0.463 3.748-0.515 1.178-1.361 2.18-2.435 2.886s-2.33 1.084-3.616 1.089l0.014-0.027zM857.779 662.738c-1.335-0.006-2.628 0.465-3.647 1.326-1.146 0.969-1.861 2.351-1.989 3.845-0.076 0.927 0.079 1.859 0.451 2.711 0.37 0.854 0.946 1.603 1.674 2.18 0.728 0.579 1.588 0.968 2.504 1.134 0.915 0.168 1.857 0.106 2.743-0.178s1.688-0.782 2.336-1.449c0.648-0.668 1.121-1.485 1.379-2.378 0.256-0.893 0.289-1.838 0.095-2.747s-0.609-1.757-1.21-2.469c-0.479-0.568-1.068-1.036-1.731-1.375s-1.386-0.544-2.127-0.6h-0.477z"></path>
<path fill="#fff" opacity="0.3" d="M912.174 733.042l8.567-104.131c0.054-0.666-0.023-1.335-0.228-1.97s-0.532-1.224-0.965-1.733c-0.431-0.508-0.96-0.927-1.554-1.231s-1.243-0.488-1.908-0.541c-0.664-0.056-1.334 0.019-1.969 0.221-0.636 0.204-1.225 0.53-1.733 0.961-0.509 0.431-0.928 0.959-1.233 1.553-0.305 0.593-0.489 1.24-0.541 1.906l-8.567 104.131c-0.279 3.461-1.412 6.799-3.299 9.715-1.885 2.916-4.466 5.318-7.508 6.991l-5.212 2.904 4.681 3.699c2.729 2.15 4.882 4.941 6.271 8.124s1.967 6.661 1.686 10.122l-11.443 139.229c-0.69 8.355-5.942 12.425-13.327 15.674-0.468 0.21-0.855 0.57-1.097 1.021-0.242 0.453-0.328 0.973-0.243 1.48 0.086 0.507 0.335 0.97 0.713 1.32 0.376 0.348 0.858 0.562 1.37 0.608 5.567 0.454 11.086-1.32 15.346-4.932 4.26-3.613 6.911-8.769 7.37-14.335l11.443-139.231c0.284-3.461-0.294-6.939-1.682-10.124-1.389-3.183-3.544-5.974-6.275-8.122l-4.681-3.713 5.212-2.89c3.040-1.677 5.619-4.079 7.505-6.995 1.885-2.915 3.021-6.252 3.302-9.713z"></path>
<path fill="#407bff" opacity="0.3" d="M1049.821 894.867c-1.432-6.497-19.308-2.652-23.008-2.056-7.188 1.304-14.226 3.334-21.005 6.060-7.465 2.931-16.138 7.241-23.869 2.785-4.468-2.573 11.046-7.652 12.452-8.169 6.595-2.316 12.96-5.236 19.016-8.724 2.454-1.459 7.201-4.946 5.158-8.486-1.697-2.93-7.784-2.652-11.483-2.202-11.212 1.373-22.209 4.131-32.741 8.209-10.244 4.069-20.274 8.659-30.049 13.75-3.788 2.138-7.907 3.621-12.187 4.389-4.667 0.663-10.383-0.332-12.227-2.917s0.531-5.609 1.075-8.207c0.768-3.108 0.445-6.385-0.915-9.283-0.902-1.942-2.417-3.534-4.31-4.535-5.052-2.651-12.691-1.67-17.77 0.425-3.291 1.394-6.298 3.38-8.872 5.861-5.183 4.824-8.819 11.076-10.449 17.967-0.411 2.158-1.243 4.214-2.449 6.049-1.206 1.837-2.762 3.418-4.58 4.652-7.108 4.786-20.131 4.508-30.089 2.108-17.385-4.124-30.646-13.764-33.842-24.65-1.551-5.185-2.307-10.609-9.283-12.637-4.508-1.326-13.949-0.397-11.935 5.304 0.732 1.563 1.688 3.011 2.838 4.297 1.843 2.426 3.807 7-1.67 8.472-1.773 0.376-3.596 0.466-5.396 0.265-17.612-1.18-33.815-7.054-44.319-15.328-3.424-2.691-6.327-5.984-8.566-9.719-1.247-2.056-1.697-4.27-3.063-6.299-1.306-1.953-3.148-3.487-5.304-4.416-6.764-2.904-22.65-1.393-23.763 4.973-0.598 3.447 1.551 7.187 2.652 10.461 0.197 0.413 0.244 0.883 0.132 1.326-0.317 0.836-1.578 1.074-2.652 1.14-14.202 0.942-27.98-4.575-39.901-10.33-12.625-6.099-26.522-14.042-44.065-14.135-3.628-0.165-7.259 0.251-10.755 1.234-0.886 0.236-1.709 0.66-2.414 1.245-0.429 0.447-0.713 1.011-0.818 1.622-0.104 0.609-0.022 1.236 0.234 1.8 0.57 1.169 1.417 2.179 2.467 2.944 5.304 4.323 12.731 6.074 19.507 8.301 20.105 6.516 39.544 14.93 58.056 25.128 1.87 1.047 5.185 3.474 2.559 5.304s-7.956 0.649-11.099 0.132c-5.702-0.928-11.178-2.413-16.735-3.805-7.347-1.856-15.913-3.54-23.869-2.002-4.204 0.809-7.956 2.532-9.933 4.867-0.681 0.682-1.129 1.563-1.281 2.514s-0.001 1.929 0.433 2.789c2.732 4.867 15.183 6.962 21.987 9.283 8.71 2.972 17.226 6.484 25.5 10.515 7.068 3.501 13.632 7.333 20.794 10.767 25.58 12.265 61.304 13.843 93.249 15.036 34.678 1.326 69.513 0.2 104.097-1.723 25.196-1.407 49.928-4.178 74.619-7.439 7.095-0.928 14.149-2.068 21.217-3.036 7.174-0.823 14.271-2.228 21.217-4.204 2.496-0.637 4.826-1.804 6.829-3.421 1.897-1.764 2.493-4.070-0.901-4.733-7.108-1.42-14.428 0.198-21.376 1.458-7.798 1.432-15.524 3.081-23.181 4.946-3.489 0.932-7.032 1.652-10.609 2.162-3.594 0.504-7.254 0.27-10.755-0.69-1.14-0.357-2.386-0.995-2.452-2.002s0.888-1.645 1.87-2.029c14.308-5.676 29.505-9.283 44.808-12.596 10.383-2.254 20.952-3.634 31.415-5.398 9.535-1.604 19.587-1.975 27.848-8.022 1.644-1.061 2.922-2.604 3.66-4.416 0.358-0.933 0.447-1.949 0.252-2.93z"></path>
<path fill="#407bff" opacity="0.3" d="M639.48 841.178c-3.886-11.046-17.731-30.605-20.648-19.055-1.564 6.484 20.648 19.055 20.648 19.055z"></path>
<path fill="#407bff" opacity="0.3" d="M683.571 809.247c-5.066-2.652-9.018-6.908-6.047-8.685s6.047 8.685 6.047 8.685z"></path>
</svg>
