<svg width="24.000000" height="24.000000" viewBox="0 0 24 24" fill="none" xmlns="http://www.w3.org/2000/svg" xmlns:xlink="http://www.w3.org/1999/xlink">
	<desc>
			Created with Pixso.
	</desc>
	<defs>
		<clipPath id="clip139_386">
			<rect id="user/outline" width="24.000000" height="24.000000" fill="white" fill-opacity="0"/>
		</clipPath>
	</defs>
	<rect id="user/outline" width="24.000000" height="24.000000" fill="#FFFFFF" fill-opacity="0"/>
	<g clip-path="url(#clip139_386)">
		<circle id="Ellipse 12" cx="12.000000" cy="12.000000" r="11.500000" stroke="#2F2F2F" stroke-opacity="1.000000" stroke-width="1.000000"/>
		<path id="Vector" d="M14.12 9.25C13.55 9.82 12.79 10.15 12 10.15C11.2 10.15 10.44 9.82 9.87 9.25C9.31 8.67 8.99 7.89 8.99 7.07C8.99 6.26 9.31 5.47 9.87 4.9C10.44 4.32 11.2 4 12 4C12.79 4 13.55 4.32 14.12 4.9C14.68 5.47 15 6.26 15 7.07C15 7.89 14.68 8.67 14.12 9.25ZM7.79 14.37C8.91 13.24 10.42 12.6 12 12.6C13.57 12.6 15.08 13.24 16.2 14.37C17.33 15.5 17.97 17.04 18 18.66C16.11 19.54 14.07 20 12 20C9.85 20 7.82 19.52 6 18.66C6.02 17.04 6.66 15.5 7.79 14.37Z" stroke="#2F2F2F" stroke-opacity="1.000000" stroke-width="1.000000" stroke-linejoin="round"/>
	</g>
</svg>
