<!-- Generated by IcoMoon.io -->
<svg version="1.1" xmlns="http://www.w3.org/2000/svg" width="1378" height="1024" viewBox="0 0 1378 1024">
<title></title>
<g id="icomoon-ignore">
</g>
<path fill="#f5f5f5" d="M688.806 1024c295.037 0 534.211-13.927 534.211-31.11 0-17.18-239.174-31.107-534.211-31.107-295.034 0-534.209 13.927-534.209 31.107 0 17.183 239.175 31.11 534.209 31.11z"></path>
<path fill="#407bff" opacity="0.1" d="M378.291 775.702c0.332-2.475 1.602-4.73 3.547-6.299 1.949-1.573 4.428-2.335 6.921-2.136 23.585-0.357 45.656 16.266 66.125 34.101 4.549 3.93 9.478 8 14.575 3.875 1.577-1.3 2.729-3.043 3.308-4.998 0.88-3.205 0.88-6.582 0-9.787-0.759-2.641-2.022-5.116-3.72-7.282-8.899-11.68-19.729-17.286-28.517-29.35-4.921-6.91-9.002-14.384-12.148-22.259-2.755-6.925-8.266-18.112-6.063-27.482 2.453-11.212 10.855-10.251 15.953-8.711 16.119 4.807 31.162 16.27 44.828 30.532 14.575 15.168 27.773 33.446 40.916 51.609 4.958 6.899 10.192 13.99 16.531 16.491 6.336 2.501 14.354-1.54 17.025-11.489 2.674-9.949-0.468-21.379-1.127-31.273-0.884-11.805-0.313-23.677 1.705-35.343 0.895-6.166 2.984-12.104 6.144-17.478 7.109-10.387 17.636-6.733 24.524 1.127 5.256 6.575 9.323 14.016 12.012 21.987 7.728 22.020 12.365 45.001 13.776 68.291 1.046 14.428 3.252 29.46 9.201 40.647 9.617 18.082 27.552 16.653 41.468 7.172 24.219-16.491 42.897-53.756 47.885-95.416 1.624-13.577 2.037-28.252 6.999-39.63 4.324-9.839 15.43-16.487 20.856-5.882 2.188 5.304 2.799 11.124 1.764 16.767-0.972 5.584-2.346 11.095-4.107 16.487-2.755 9.345-5.51 26.849 1.93 32.319 1.109 0.674 2.35 1.094 3.643 1.238 1.289 0.14 2.593 0 3.823-0.413 24.355-5.057 47.005-27.921 61.882-59.827 5.393-12.008 9.511-24.543 12.288-37.405 1.79-7.86 2.534-16.296 4.52-24.101 1.271-6.144 3.846-11.942 7.547-17.010 9.481-11.323 31.357-5.993 32.595 18.274 0.744 14.045-3.002 27.784-4.38 41.527-0.855 8.575 4.464 8.52 8.431 8.244 19.010-1.923 35.818-21.051 50.725-40.949 17.714-23.663 37.332-54.386 61.521-55.292 5.51-0.192 14.686 0.523 17.994 9.013 1.532 5.205 1.532 10.737 0 15.938-4.906 20.285-19.287 30.753-30.307 40.783-31.074 29.070-58.401 61.878-81.364 97.67-3.499 5.499-7.105 14.568-3.772 19.953 0.637 1.024 1.569 1.834 2.674 2.324s2.332 0.637 3.525 0.424c11.378-0.88 22.042-9.894 32.429-17.367 10.387-7.477 22.178-14.016 33.063-8.384 3.352 2.007 6.277 4.66 8.597 7.802 2.324 3.142 3.997 6.711 4.928 10.502 1.945 6.645 2.258 13.658 0.91 20.447-3.997 18.66-21.268 27.044-30.775 36.249-13.091 12.594-25.073 26.285-35.818 40.919-9.92 13.548-19.287 28.388-29.206 41.689-35.818 47.627-85.412 54.692-129.495 60.213-47.97 5.993-96.046 2.748-143.739-3.543-34.687-4.619-68.881-14.458-102.743-26.138-11.629-4.203-23.173-8.792-34.577-14.233-12.262-5.827-30.307-9.426-35.019-32.374-0.995-4.947 0.162-8.958 3.444-10.8 10.166-5.772 24.657 1.949 34.219 7.035 13.198 7.035 25.707 17.065 39.262 22.48 2.177 1.068 4.553 1.683 6.976 1.812 2.424 0.125 4.851-0.239 7.127-1.072 2.236-0.936 4.078-2.615 5.208-4.755 1.44-2.785 1.794-6.008 0.991-9.039-0.556-1.639-1.503-3.12-2.755-4.317-24.399-24.941-53.55-44.769-85.74-58.316-10.332-4.424-20.885-8.052-30.831-14.318-8.041-4.958-14.981-11.503-20.392-19.235-4.626-7.393-12.067-20.447-9.724-32.238z"></path>
<path fill="#407bff" opacity="0.1" d="M905.282 573.683c-1.842 1.901-4.254 3.157-6.873 3.569s-5.3-0.033-7.639-1.278c-2.343-1.241-4.214-3.208-5.334-5.606s-1.425-5.091-0.873-7.676c9.507-46.032 30.171-79.507 54.747-62.136 18.347 12.944-10.417 48.64-34.028 73.128z"></path>
<path fill="#407bff" opacity="0.3" d="M838.604 595.172c7.518-4.137 13.89-10.067 18.55-17.261s7.459-15.426 8.151-23.961l18.624-226.313c0.965-11.633-0.519-23.34-4.358-34.367s-9.945-21.132-17.931-29.665l-57.392-61.312c-3.157-3.39-5.577-7.398-7.098-11.77s-2.118-9.010-1.746-13.623l2.755-33.143-148.535-12.174-2.755 33.143c-0.379 4.611-1.72 9.093-3.938 13.157-2.214 4.065-5.256 7.624-8.929 10.45l-66.678 51.199c-9.268 7.125-16.944 16.103-22.532 26.358s-8.969 21.561-9.923 33.195l-18.653 226.312c-0.704 8.524 0.715 17.091 4.133 24.937 3.418 7.842 8.726 14.723 15.456 20.023-7.514 4.137-13.887 10.067-18.539 17.261-4.656 7.194-7.448 15.426-8.129 23.961l-23.78 288.562c-1.12 13.717 3.267 27.32 12.192 37.814 8.929 10.498 21.666 17.032 35.42 18.167l245.215 20.086c6.811 0.564 13.662-0.221 20.171-2.302 6.505-2.081 12.535-5.422 17.747-9.831 5.212-4.405 9.503-9.794 12.627-15.857 3.124-6.059 5.021-12.675 5.58-19.467l23.777-288.562c0.726-8.524-0.67-17.095-4.070-24.948s-8.693-14.749-15.412-20.067z"></path>
<path fill="#407bff" opacity="0.3" d="M649.669 131.633l-2.107 25.555 148.502 12.177 2.103-25.554-148.498-12.178z"></path>
<path fill="#fff" opacity="0.3" d="M860.263 269.514l-57.392-61.367c0 0-37.004 1.594-8.266 46.856 24.495 38.282 67.171 32.319 65.658 14.51z"></path>
<path fill="#407bff" opacity="0.2" d="M485.387 900.030c-1.12 13.717 3.267 27.32 12.192 37.818 8.929 10.494 21.666 17.029 35.42 18.163l245.215 20.090c6.807 0.56 13.662-0.225 20.167-2.306 6.509-2.081 12.538-5.422 17.751-9.827 5.212-4.409 9.503-9.798 12.627-15.857 3.124-6.063 5.021-12.678 5.577-19.471l-348.948-28.609z"></path>
<path fill="#407bff" opacity="0.3" d="M849.544 274.818c6.409 6.855 11.312 14.97 14.395 23.824 3.087 8.854 4.28 18.253 3.514 27.595l-18.624 226.34c-0.486 5.816-2.405 11.426-5.588 16.325-3.183 4.903-7.529 8.94-12.653 11.761l-21.684 11.982 19.427 15.36c4.593 3.613 8.221 8.306 10.557 13.658 2.339 5.352 3.311 11.198 2.833 17.014l-23.777 288.558c-0.766 9.352-5.219 18.019-12.387 24.097-7.164 6.081-16.454 9.076-25.828 8.332l-245.215-20.090c-4.656-0.368-9.198-1.647-13.356-3.764-4.162-2.118-7.864-5.032-10.896-8.575-3.031-3.547-5.334-7.651-6.774-12.085-1.44-4.431-1.993-9.102-1.624-13.747l23.777-288.558c0.475-5.824 2.387-11.437 5.566-16.34 3.175-4.906 7.522-8.951 12.649-11.776l21.681-11.982-19.287-15.36c-4.593-3.613-8.221-8.306-10.56-13.658-2.335-5.352-3.308-11.194-2.829-17.014l18.653-226.312c0.774-9.343 3.492-18.421 7.986-26.656s10.66-15.442 18.108-21.163c22.042-14.208 79.901 21.161 147.651 26.712s110.124-11.597 124.287-4.48z"></path>
<path fill="#407bff" opacity="0.2" d="M725.117 279.325c-67.72-5.496-125.635-40.948-147.677-26.74 38.573 21.161 82.657 34.27 146.605 39.519s125.499-17.286 125.499-17.286c-14.163-7.118-56.703 10.086-124.427 4.507z"></path>
<path fill="#407bff" opacity="0.2" d="M516.243 525.397c-0.704 8.524 0.715 17.091 4.133 24.933 3.418 7.846 8.73 14.726 15.459 20.027l302.769 24.734c7.518-4.14 13.89-10.071 18.55-17.261 4.656-7.194 7.459-15.426 8.148-23.961l-349.059-28.473z"></path>
<path fill="#407bff" d="M801.273 103.28l-148.086-12.181c-6.203-0.51-11.643 4.092-12.152 10.279l-2.95 35.936c-0.508 6.187 4.107 11.616 10.31 12.126l148.086 12.181c6.203 0.51 11.643-4.092 12.152-10.279l2.95-35.935c0.508-6.187-4.107-11.616-10.31-12.127z"></path>
<path fill="#fff" opacity="0.2" d="M655.909 143.895c-0.18-0.014-0.357-0.063-0.519-0.145s-0.306-0.196-0.424-0.334c-0.118-0.138-0.206-0.298-0.262-0.47-0.059-0.173-0.077-0.354-0.063-0.535l3.47-43.476c0.029-0.365 0.203-0.702 0.483-0.94s0.641-0.354 1.006-0.325c0.368 0.029 0.704 0.202 0.943 0.48s0.354 0.639 0.324 1.004l-3.58 43.449c-0.022 0.35-0.177 0.678-0.431 0.919-0.258 0.24-0.597 0.374-0.947 0.373z"></path>
<path fill="#fff" opacity="0.2" d="M682.772 146.093c-0.18-0.014-0.357-0.063-0.519-0.145s-0.306-0.196-0.424-0.333c-0.118-0.138-0.206-0.298-0.262-0.47-0.059-0.172-0.077-0.354-0.063-0.535l3.58-43.449c0.037-0.362 0.21-0.697 0.49-0.932 0.276-0.236 0.634-0.355 0.998-0.332 0.18 0.014 0.357 0.063 0.516 0.146 0.162 0.083 0.302 0.196 0.42 0.335 0.114 0.138 0.203 0.298 0.254 0.471s0.070 0.353 0.052 0.533l-3.665 43.449c-0.033 0.343-0.192 0.661-0.446 0.894s-0.586 0.365-0.932 0.37z"></path>
<path fill="#fff" opacity="0.2" d="M709.606 148.402c-0.18-0.014-0.357-0.063-0.519-0.145s-0.306-0.196-0.424-0.333c-0.118-0.138-0.206-0.298-0.262-0.47s-0.077-0.354-0.063-0.535l3.58-43.449c0.044-0.36 0.221-0.69 0.497-0.925s0.63-0.356 0.991-0.34c0.184 0.014 0.357 0.063 0.519 0.145s0.306 0.196 0.424 0.333c0.118 0.138 0.21 0.298 0.265 0.47s0.077 0.354 0.059 0.535l-3.58 43.449c-0.015 0.181-0.063 0.357-0.147 0.518-0.081 0.162-0.195 0.305-0.332 0.422-0.14 0.118-0.298 0.207-0.471 0.262s-0.357 0.076-0.538 0.061z"></path>
<path fill="#fff" opacity="0.2" d="M736.47 150.49c-0.18-0.014-0.357-0.063-0.519-0.145s-0.306-0.196-0.424-0.333c-0.118-0.138-0.206-0.298-0.262-0.47s-0.077-0.354-0.063-0.534l3.58-43.449c0.037-0.362 0.21-0.697 0.49-0.932 0.276-0.236 0.637-0.355 0.998-0.332 0.18 0.014 0.357 0.063 0.516 0.146 0.162 0.083 0.306 0.196 0.42 0.335s0.203 0.298 0.254 0.471c0.052 0.172 0.070 0.354 0.052 0.533l-3.58 43.449c-0.011 0.18-0.059 0.355-0.136 0.516-0.081 0.161-0.192 0.305-0.328 0.423s-0.295 0.207-0.468 0.263c-0.169 0.056-0.35 0.077-0.53 0.062z"></path>
<path fill="#fff" opacity="0.2" d="M763.197 152.689c-0.18-0.014-0.357-0.063-0.519-0.145s-0.306-0.196-0.424-0.334c-0.118-0.138-0.206-0.298-0.262-0.47-0.059-0.173-0.077-0.354-0.063-0.535l3.58-43.449c0.048-0.357 0.228-0.683 0.501-0.917 0.276-0.234 0.626-0.357 0.987-0.347 0.18 0.014 0.357 0.063 0.519 0.145s0.306 0.196 0.424 0.334c0.118 0.138 0.206 0.298 0.265 0.47 0.055 0.172 0.074 0.354 0.059 0.535l-3.58 43.449c-0.011 0.182-0.059 0.36-0.14 0.523s-0.195 0.309-0.332 0.427c-0.14 0.118-0.302 0.207-0.475 0.261-0.177 0.054-0.361 0.072-0.541 0.053z"></path>
<path fill="#fff" opacity="0.2" d="M790.167 154.887c-0.18-0.014-0.357-0.063-0.519-0.145s-0.306-0.196-0.424-0.334c-0.118-0.138-0.206-0.298-0.262-0.47s-0.077-0.354-0.063-0.535l3.473-43.476c0.033-0.362 0.21-0.697 0.486-0.932s0.637-0.355 1.002-0.332c0.361 0.035 0.692 0.21 0.925 0.488s0.343 0.635 0.313 0.996l-3.555 43.476c-0.033 0.343-0.192 0.661-0.446 0.894s-0.586 0.365-0.932 0.37z"></path>
<path fill="#407bff" opacity="0.2" d="M562.065 449.794c-4.188-23.11-37.94-21.463-39.87 1.923l-6.059 73.68c-0.707 8.524 0.711 17.091 4.129 24.937 3.418 7.842 8.73 14.723 15.459 20.023-7.518 4.137-13.887 10.067-18.543 17.261-4.652 7.194-7.448 15.426-8.129 23.961l-23.777 288.562c-1.12 13.717 3.264 27.32 12.192 37.814 8.925 10.498 21.666 17.032 35.416 18.167l63.37 5.194c6.984 0.567 14.001-0.468 20.517-3.035s12.354-6.59 17.062-11.765c4.707-5.175 8.159-11.36 10.089-18.075 1.934-6.715 2.291-13.783 1.046-20.66l-82.903-457.986z"></path>
<path fill="#407bff" opacity="0.3" d="M805.903 827.642c-0.438 5.297-2.438 10.347-5.754 14.509s-7.791 7.249-12.866 8.877c-5.072 1.624-10.516 1.713-15.64 0.25-5.124-1.459-9.699-4.402-13.143-8.454-3.448-4.055-5.614-9.036-6.221-14.318-0.611-5.278 0.365-10.623 2.799-15.349 2.431-4.73 6.218-8.63 10.874-11.212 4.66-2.582 9.978-3.731 15.29-3.297 7.124 0.586 13.721 3.971 18.344 9.408s6.895 12.48 6.317 19.585z"></path>
<path fill="#407bff" opacity="0.3" d="M720.24 723.57c-0.306 3.746-1.72 7.323-4.063 10.269-2.346 2.947-5.514 5.135-9.102 6.284-3.591 1.153-7.444 1.216-11.069 0.184-3.628-1.031-6.866-3.116-9.304-5.982-2.442-2.869-3.974-6.394-4.405-10.133-0.431-3.735 0.258-7.518 1.982-10.863s4.405-6.107 7.702-7.934c3.297-1.827 7.061-2.637 10.822-2.328 5.032 0.42 9.695 2.814 12.966 6.656 3.267 3.842 4.877 8.822 4.472 13.846z"></path>
<path fill="#407bff" opacity="0.3" d="M640.53 491.925c-3.764 0.173-7.496-0.77-10.726-2.707-3.227-1.941-5.805-4.792-7.411-8.192-1.606-3.404-2.162-7.205-1.602-10.921s2.21-7.186 4.744-9.967c2.538-2.785 5.842-4.752 9.5-5.661s7.503-0.718 11.050 0.553c3.547 1.267 6.638 3.558 8.881 6.579s3.54 6.638 3.724 10.395c0.122 2.497-0.25 4.995-1.098 7.348s-2.151 4.52-3.838 6.369c-1.687 1.853-3.724 3.352-5.993 4.416s-4.726 1.672-7.231 1.79z"></path>
<path fill="#407bff" opacity="0.3" d="M692.522 378.232c-2.667 0.133-5.315-0.527-7.61-1.897-2.291-1.37-4.125-3.385-5.267-5.794-1.142-2.411-1.543-5.105-1.149-7.741s1.562-5.097 3.359-7.070c1.798-1.973 4.14-3.37 6.733-4.014s5.319-0.505 7.835 0.397c2.516 0.903 4.704 2.53 6.291 4.675 1.584 2.145 2.497 4.711 2.623 7.374 0.162 3.559-1.094 7.039-3.492 9.676-2.402 2.637-5.754 4.218-9.323 4.394z"></path>
<path fill="#407bff" opacity="0.3" d="M776.17 641.37c-0.129 1.547-0.715 3.020-1.687 4.236-0.969 1.216-2.28 2.118-3.761 2.589-1.484 0.475-3.076 0.501-4.571 0.074-1.499-0.431-2.836-1.289-3.842-2.475-1.009-1.182-1.639-2.641-1.82-4.184-0.177-1.543 0.107-3.101 0.818-4.486 0.711-1.381 1.816-2.523 3.179-3.278 1.359-0.755 2.914-1.090 4.468-0.965 2.085 0.173 4.015 1.164 5.367 2.755 1.352 1.595 2.019 3.654 1.849 5.735z"></path>
<path fill="#fff" opacity="0.7" d="M633.455 856.388h-1.322c-2.111-0.144-4.173-0.704-6.063-1.647-1.893-0.943-3.577-2.254-4.958-3.849-1.359-1.591-2.391-3.437-3.028-5.426-0.637-1.993-0.873-4.089-0.692-6.173 0.258-3.079 1.407-6.015 3.308-8.454 1.904-2.438 4.475-4.269 7.407-5.275 2.928-1.006 6.089-1.135 9.091-0.379 3.002 0.759 5.72 2.372 7.82 4.645 2.1 2.269 3.492 5.102 4.004 8.148 0.512 3.050 0.125 6.177-1.116 9.010s-3.282 5.242-5.871 6.932c-2.589 1.694-5.621 2.601-8.719 2.604l0.14-0.136zM633.455 826.596c-3.135 0.018-6.17 1.098-8.605 3.065s-4.125 4.704-4.788 7.757c-0.667 3.057-0.269 6.243 1.127 9.043s3.706 5.039 6.553 6.35c2.844 1.311 6.052 1.617 9.091 0.866 3.043-0.751 5.739-2.516 7.639-4.998 1.901-2.486 2.895-5.544 2.822-8.667s-1.216-6.129-3.234-8.524c-1.175-1.389-2.615-2.531-4.236-3.363-1.624-0.829-3.396-1.33-5.212-1.473l-1.157-0.055z"></path>
<path fill="#fff" opacity="0.7" d="M803.866 534.797h-0.965c-3.061-0.254-5.897-1.705-7.883-4.037-1.989-2.335-2.969-5.359-2.726-8.413 0.254-3.057 1.713-5.89 4.059-7.875 2.343-1.982 5.385-2.958 8.45-2.704 3.061 0.25 5.894 1.702 7.883 4.037 1.989 2.332 2.969 5.359 2.726 8.409-0.262 3.057-1.716 5.89-4.052 7.89-2.1 1.753-4.755 2.711-7.492 2.693zM794.359 522.457c-0.136 1.868 0.284 3.735 1.204 5.367 0.925 1.632 2.31 2.954 3.985 3.805 1.676 0.847 3.566 1.182 5.429 0.965 1.868-0.217 3.625-0.983 5.057-2.195 0.958-0.807 1.742-1.798 2.317-2.906 0.571-1.112 0.921-2.324 1.020-3.573 0.103-1.245-0.041-2.497-0.424-3.687-0.387-1.19-1.002-2.291-1.812-3.245-0.84-0.925-1.86-1.676-2.995-2.203-1.135-0.53-2.365-0.825-3.617-0.877-1.245-0.103-2.501 0.037-3.695 0.416s-2.298 0.991-3.252 1.798c-0.954 0.807-1.739 1.794-2.313 2.906-0.571 1.109-0.917 2.321-1.017 3.566l0.111-0.136z"></path>
<path fill="#fff" opacity="0.7" d="M625.848 291.141h-0.413c-1.422-0.14-2.737-0.825-3.661-1.912s-1.392-2.49-1.3-3.913c0.070-1.069 0.453-2.094 1.098-2.95 0.648-0.856 1.532-1.504 2.542-1.866 1.013-0.362 2.107-0.421 3.149-0.17 1.046 0.25 1.993 0.8 2.729 1.581 0.733 0.781 1.227 1.759 1.411 2.815s0.055 2.142-0.368 3.125c-0.427 0.983-1.131 1.822-2.026 2.411-0.899 0.59-1.949 0.905-3.024 0.907l-0.136-0.028zM622.515 285.481c-0.052 0.655 0.092 1.31 0.413 1.883s0.803 1.039 1.392 1.339c0.586 0.299 1.245 0.419 1.901 0.344 0.652-0.075 1.271-0.342 1.772-0.767 0.505-0.424 0.869-0.988 1.050-1.619s0.173-1.302-0.026-1.928c-0.203-0.626-0.582-1.178-1.098-1.588s-1.138-0.659-1.794-0.715c-0.438-0.042-0.88 0.005-1.304 0.137-0.42 0.132-0.81 0.346-1.146 0.63s-0.611 0.632-0.81 1.025c-0.199 0.392-0.32 0.82-0.35 1.258z"></path>
<path fill="#fff" opacity="0.7" d="M747.682 433.469h-1.157c-1.812-0.14-3.58-0.641-5.201-1.466-1.617-0.829-3.057-1.967-4.232-3.352-1.179-1.385-2.066-2.987-2.619-4.719-0.549-1.728-0.751-3.551-0.593-5.356 0.236-2.656 1.238-5.183 2.888-7.279s3.875-3.665 6.402-4.523c2.531-0.858 5.253-0.961 7.842-0.306 2.586 0.659 4.925 2.055 6.733 4.019 1.809 1.96 3.002 4.402 3.444 7.032 0.442 2.626 0.107 5.323-0.961 7.765-1.072 2.442-2.829 4.52-5.061 5.982-2.228 1.466-4.84 2.251-7.511 2.258l0.026-0.055zM747.682 407.913c-2.77-0.015-5.459 0.961-7.577 2.748-2.38 2.007-3.864 4.873-4.133 7.971-0.155 1.919 0.166 3.849 0.939 5.617 0.77 1.768 1.963 3.319 3.477 4.52 1.514 1.197 3.3 2.004 5.201 2.35 1.904 0.346 3.86 0.217 5.702-0.372 1.838-0.586 3.507-1.617 4.851-3.002 1.348-1.385 2.332-3.076 2.866-4.928s0.6-3.809 0.199-5.695c-0.405-1.882-1.267-3.639-2.516-5.116-0.995-1.179-2.217-2.147-3.595-2.851-1.378-0.7-2.88-1.123-4.42-1.241h-0.995z"></path>
<path fill="#fff" opacity="0.3" d="M860.701 553.623l17.798-215.816c0.114-1.379-0.048-2.766-0.471-4.083s-1.105-2.538-2.004-3.592c-0.899-1.054-1.996-1.921-3.23-2.552s-2.582-1.012-3.963-1.123c-1.381-0.116-2.774 0.040-4.092 0.461s-2.545 1.097-3.602 1.991c-1.057 0.894-1.926 1.987-2.56 3.217-0.63 1.23-1.013 2.573-1.123 3.95l-17.798 215.813c-0.582 7.175-2.936 14.093-6.855 20.137s-9.279 11.025-15.603 14.491l-10.826 6.019 9.724 7.669c5.669 4.453 10.144 10.236 13.028 16.833 2.884 6.601 4.089 13.806 3.503 20.981l-23.777 288.558c-1.433 17.316-12.343 25.751-27.692 32.484-0.972 0.435-1.772 1.179-2.276 2.118s-0.681 2.015-0.505 3.065c0.177 1.050 0.696 2.011 1.481 2.737 0.781 0.722 1.783 1.164 2.844 1.26 11.566 0.943 23.036-2.733 31.888-10.222 8.848-7.488 14.354-18.174 15.312-29.711l23.777-288.558c0.589-7.175-0.611-14.384-3.496-20.981-2.888-6.601-7.363-12.384-13.036-16.833l-9.728-7.695 10.829-5.993c6.317-3.473 11.677-8.454 15.592-14.494 3.919-6.045 6.277-12.958 6.862-20.13z"></path>
<path fill="#407bff" opacity="0.3" d="M1146.696 889.009c-2.976-13.467-40.116-5.496-47.804-4.258-14.936 2.704-29.556 6.91-43.642 12.557-15.511 6.074-33.53 15.006-49.594 5.772-9.286-5.33 22.952-15.857 25.873-16.929 13.699-4.8 26.926-10.851 39.509-18.082 5.098-3.024 14.962-10.251 10.719-17.588-3.529-6.074-16.174-5.496-23.861-4.564-23.294 2.847-46.143 8.56-68.026 17.014-21.283 8.431-42.12 17.946-62.435 28.499-7.868 4.428-16.428 7.503-25.32 9.094-9.699 1.374-21.574-0.685-25.401-6.045-3.831-5.359 1.101-11.625 2.232-17.010 1.595-6.442 0.925-13.235-1.904-19.239-1.875-4.026-5.017-7.326-8.954-9.4-10.494-5.496-26.366-3.462-36.919 0.88-6.836 2.888-13.084 7.006-18.432 12.148-10.77 9.997-18.325 22.955-21.71 37.236-0.855 4.475-2.582 8.733-5.087 12.538-2.505 3.809-5.739 7.083-9.518 9.64-14.767 9.923-41.822 9.345-62.516 4.369-36.12-8.546-63.672-28.525-70.313-51.086-3.223-10.748-4.792-21.987-19.287-26.193-9.367-2.748-28.985-0.821-24.797 10.995 1.521 3.238 3.507 6.236 5.897 8.903 3.831 5.028 7.908 14.509-3.47 17.563-3.687 0.777-7.47 0.965-11.216 0.549-36.588-2.446-70.258-14.62-92.079-31.77-7.116-5.577-13.146-12.402-17.798-20.145-2.589-4.258-3.525-8.848-6.365-13.054-2.711-4.044-6.538-7.223-11.021-9.15-14.052-6.019-47.060-2.888-49.373 10.306-1.241 7.146 3.223 14.892 5.51 21.681 0.409 0.858 0.508 1.831 0.276 2.748-0.663 1.731-3.278 2.228-5.51 2.365-29.508 1.952-58.136-9.481-82.905-21.408-26.23-12.642-55.104-29.103-91.556-29.295-7.537-0.343-15.081 0.519-22.345 2.556-1.839 0.486-3.55 1.37-5.014 2.582-0.891 0.925-1.483 2.096-1.698 3.359s-0.047 2.564 0.486 3.731c1.183 2.42 2.942 4.516 5.124 6.1 11.021 8.958 26.45 12.586 40.529 17.205 41.773 13.504 82.162 30.941 120.622 52.077 3.886 2.17 10.774 7.201 5.319 10.991-5.455 3.794-16.531 1.348-23.061 0.276-11.847-1.923-23.226-5.002-34.771-7.886-15.264-3.849-33.063-7.337-49.594-4.151-8.734 1.676-16.531 5.249-20.637 10.085-1.415 1.414-2.347 3.241-2.663 5.212-0.317 1.974-0.002 3.997 0.899 5.783 5.676 10.085 31.547 14.428 45.682 19.235 18.097 6.162 35.792 13.441 52.983 21.795 14.686 7.253 28.325 15.198 43.202 22.314 53.149 25.42 127.374 28.69 193.746 31.166 72.048 2.748 144.428 0.413 216.285-3.573 52.349-2.914 103.733-8.66 155.037-15.419 14.741-1.923 29.398-4.288 44.084-6.291 14.907-1.705 29.652-4.619 44.084-8.715 5.186-1.319 10.026-3.735 14.189-7.087 3.941-3.658 5.183-8.439-1.871-9.813-14.771-2.939-29.976 0.413-44.415 3.024-16.2 2.969-32.256 6.383-48.161 10.251-7.253 1.926-14.612 3.426-22.042 4.479-7.47 1.046-15.073 0.56-22.344-1.429-2.372-0.744-4.962-2.063-5.098-4.151-0.14-2.089 1.845-3.407 3.886-4.203 29.725-11.765 61.304-19.239 93.096-26.108 21.574-4.674 43.535-7.529 65.274-11.187 19.81-3.326 40.695-4.092 57.86-16.627 3.415-2.199 6.070-5.393 7.603-9.15 0.744-1.934 0.928-4.041 0.523-6.074z"></path>
<path fill="#407bff" opacity="0.3" d="M294.12 777.735c-8.073-22.893-36.837-63.429-42.899-39.49-3.251 13.437 42.899 39.49 42.899 39.49z"></path>
<path fill="#407bff" opacity="0.3" d="M1016.486 822.802c15.375-13.986 34.551-22.311 37.030-10.001 2.313 11.651-37.030 10.001-37.030 10.001z"></path>
<path fill="#407bff" opacity="0.3" d="M385.731 711.558c-10.524-5.496-18.734-14.318-12.564-18.001 6.173-3.68 12.564 18.001 12.564 18.001z"></path>
</svg>
